<?xml version="1.0" encoding="UTF-8"?>
<svg width="100px" height="100px" viewBox="0 0 100 100" version="1.1" xmlns="http://www.w3.org/2000/svg" xmlns:xlink="http://www.w3.org/1999/xlink">
    <!-- Generator: Sketch 52.6 (67491) - http://www.bohemiancoding.com/sketch -->
    <title>logo-1</title>
    <desc>Created with Sketch.</desc>
    <g id="logo-1" stroke="none" stroke-width="1" fill="none" fill-rule="evenodd">
        <g id="Adaptive-lab" transform="translate(25.000000, 30.000000)" fill="#000000" fill-rule="nonzero">
            <path d="M49.4760039,35.1206787 L49.4760039,38.4482685 L47.2785682,38.4482685 L46.9404819,40.5172414 L44.2866925,40.5172414 L44.6247537,38.4482685 L42.7822962,38.4482685 L42.4442099,40.5172414 L39.7903954,40.5172414 L40.1284817,38.4482685 L38.7931034,38.4482685 L38.7931034,35.1206787 L40.6862865,35.1206787 L40.9229218,33.7758694 L39.3170996,33.7758694 L39.3170996,30.4482795 L41.4807266,30.4482795 L41.8188129,28.4482759 L44.4726274,28.4482759 L44.1345411,30.4482795 L45.9770237,30.4482795 L46.315085,28.4482759 L48.9688995,28.4482759 L48.6308131,30.4482795 L50,30.4482795 L50,33.7758694 L48.0730335,33.7758694 L47.836373,35.1206787 L49.4760039,35.1206787 Z M43.4753104,33.637931 L43.2048664,35.258617 L45.2839844,35.258617 L45.5544284,33.637931 L43.4753104,33.637931 Z" id="Shape"></path>
            <path d="M0,10.7813748 L4.48069702,0 L8.00451377,0 L12.4852366,10.7813748 L8.62727282,10.7813748 L8.06527012,9.34386852 L4.34401458,9.34386852 L3.79720743,10.7813748 L0,10.7813748 Z M5.24013851,6.80528481 L7.18434173,6.80528481 L6.21224012,4.20548975 L5.24013851,6.80528481 Z M14.6883315,10.7813748 L14.6883315,0.0764752496 L18.7589812,0.0764752496 C22.9814831,0.0764752496 25.0927083,2.1715752 25.0927083,5.33717288 L25.0927083,5.3677526 C25.0927083,8.53335028 22.9359223,10.7813748 18.6374685,10.7813748 L14.6883315,10.7813748 Z M18.8349073,3.1961774 L18.2425652,3.1961774 L18.2425652,7.66164666 L18.8349073,7.66164666 C20.4601333,7.66164666 21.508161,6.98878906 21.508161,5.44422785 L21.508161,5.41362217 C21.508161,3.86906095 20.4601333,3.19620336 18.8349073,3.19620336 L18.8349073,3.1961774 Z M25.7730246,10.7813748 L30.2537474,0 L33.7775642,0 L38.2582612,10.7813748 L34.4002974,10.7813748 L33.8383205,9.34386852 L30.1170392,9.34386852 L29.5702578,10.7813748 L25.7730246,10.7813748 Z M31.0131889,6.80525885 L32.9573663,6.80528481 L31.9852647,4.20548975 L31.0131631,6.80528481 L31.0131889,6.80525885 Z M40.4614077,10.7813748 L40.4614077,0.0764752496 L45.2458865,0.0764752496 C48.0710181,0.0764752496 50,1.3457671 50,3.88435081 L50,3.91493053 C50,6.49940977 48.040627,7.87575659 45.1699346,7.87575659 L44.0155897,7.87575659 L44.0155897,10.7813748 L40.4614077,10.7813748 Z M44.0155897,5.32185706 L44.97247,5.32185706 C45.8838153,5.32185706 46.4913788,4.90895302 46.4913788,4.14433032 L46.4913788,4.1137506 C46.4913788,3.33381208 45.9293761,2.9361979 44.9876656,2.9361979 L44.0155897,2.9361979 L44.0155897,5.32185706 Z M0.102395735,22.2543236 L5.38809506,22.2543236 L5.38809506,19.4098648 L0.102395735,19.4098648 L0.102395735,22.2543236 Z M10.1405058,25.6492951 L13.6946879,25.6492951 L13.6946879,17.9723586 L16.8235754,17.9723586 L16.8235754,14.9443956 L7.01161827,14.9443956 L7.01161827,17.9723586 L10.1405058,17.9723586 L10.1405058,25.6492951 Z M19.595097,25.6492951 L23.149279,25.6492951 L23.149279,14.9443956 L19.595097,14.9443956 L19.595097,25.6492951 Z M30.2167518,25.7257703 L33.6190817,25.7257703 L37.9327052,14.9443956 L34.0140109,14.9443956 L31.9483207,20.954426 L29.8826564,14.9443956 L25.9031799,14.9443956 L30.2168034,25.7257703 L30.2167518,25.7257703 Z M40.4827434,25.6492951 L49.6264323,25.6492951 L49.6264323,22.7130972 L43.9761691,22.7130972 L43.9761691,21.5508603 L49.1707726,21.5508603 L49.1707726,18.9663811 L43.9761691,18.9663811 L43.9761691,17.8805935 L49.5504804,17.8805935 L49.5504804,14.9443956 L40.4827434,14.9443956 L40.4827434,25.6492951 Z M0.254273713,40.5172414 L8.80559464,40.5172414 L8.80559464,37.4586987 L3.80845574,37.4586987 L3.80845574,29.8123159 L0.254273713,29.8123159 L0.254273713,40.5172414 Z M11.2620603,40.5172414 L15.7427574,29.7358666 L19.2665999,29.7358666 L23.7473227,40.5172414 L19.8893589,40.5172414 L19.3273562,39.0797092 L15.6060749,39.0797092 L15.0592678,40.5172414 L11.2620603,40.5172414 Z M16.1553072,36.5411255 L18.0994846,36.5411255 L17.127383,33.9413564 L16.1553072,36.5411255 Z M25.9504177,40.5172414 L25.9504177,29.8123159 L31.9044368,29.8123159 C33.377759,29.8123159 34.304274,30.1487447 34.927033,30.7757587 C35.3067409,31.158083 35.5801574,31.7086217 35.5801574,32.4426647 L35.5801574,32.4732704 C35.5801574,33.7425622 34.8207159,34.5224748 33.6815408,34.920089 C35.0485457,35.3177032 35.9294999,36.0517462 35.9294999,37.5198841 L35.9294999,37.5504378 C35.9294999,39.2632134 34.5321297,40.5172414 31.8436805,40.5172414 L25.9504177,40.5172414 Z M32.0867059,33.2837627 L32.0867059,33.253183 C32.0867059,32.7791195 31.706998,32.51914 30.9475566,32.51914 L29.4134781,32.51914 L29.4134781,34.0178316 L30.9627521,34.0178316 C31.7221936,34.0178316 32.0867059,33.7578521 32.0867059,33.2837627 Z M32.3601224,36.9998991 C32.3601224,36.5411255 31.9803887,36.2199865 31.2057517,36.2199865 L29.4134781,36.2199865 L29.4134781,37.8104173 L31.190582,37.8104173 C31.9651932,37.8104173 32.3601224,37.4892784 32.3601224,37.0305048 L32.3601224,36.9998991 Z" id="Shape"></path>
        </g>
    </g>
</svg>