<?xml version="1.0" encoding="UTF-8"?>
<svg width="100px" height="100px" viewBox="0 0 100 100" version="1.1" xmlns="http://www.w3.org/2000/svg" xmlns:xlink="http://www.w3.org/1999/xlink">
    <!-- Generator: Sketch 52.6 (67491) - http://www.bohemiancoding.com/sketch -->
    <title>logo-2</title>
    <desc>Created with Sketch.</desc>
    <defs>
        <polygon id="path-1" points="0 0 80 0 80 16.1797753 0 16.1797753"></polygon>
    </defs>
    <g id="logo-2" stroke="none" stroke-width="1" fill="none" fill-rule="evenodd">
        <g id="Logo_YouGov" transform="translate(10.000000, 42.000000)">
            <g id="g6594" transform="translate(40.000000, 8.089888) scale(-1, 1) rotate(-180.000000) translate(-40.000000, -8.089888) ">
                <g id="g6596">
                    <g id="g6598">
                        <g id="g6600-Clipped">
                            <mask id="mask-2" fill="white">
                                <use xlink:href="#path-1"></use>
                            </mask>
                            <g id="path6604"></g>
                            <g id="g6600" mask="url(#mask-2)" fill="#000000">
                                <g id="g6608">
                                    <g id="g6610-Clipped">
                                        <g id="g6610">
                                            <polyline id="path6616" points="5.94818182 0.265435773 5.94818182 6.84054661 0 15.8872275 3.84363636 15.8872275 7.66454545 9.70699059 11.4086364 15.8872275 15.1854545 15.8872275 9.21545455 6.81911934 9.21545455 0.265435773 5.94818182 0.265435773"></polyline>
                                            <path d="M15.3145455,5.92398421 C15.3145455,4.80145764 15.5913636,3.94174309 16.1454545,3.34527786 C16.6990909,2.74837534 17.3822727,2.45058002 18.1945455,2.45058002 C19.0063636,2.45058002 19.6877273,2.74837534 20.2381818,3.34527786 C20.7877273,3.94174309 21.0631818,4.8084543 21.0631818,5.94541148 C21.0631818,7.05394473 20.7877273,7.90622533 20.2381818,8.50269056 C19.6877273,9.09959308 19.0063636,9.3973884 18.1945455,9.3973884 C17.3822727,9.3973884 16.6990909,9.09959308 16.1454545,8.50269056 C15.5913636,7.90622533 15.3145455,7.04694807 15.3145455,5.92398421 Z M12.1245455,6.08359551 C12.1245455,7.07799575 12.3790909,8.04047373 12.8886364,8.97102946 C13.3981818,9.90202247 14.12,10.6126207 15.0545455,11.1023869 C15.9881818,11.5930276 17.0313636,11.838348 18.1831818,11.838348 C19.9627273,11.838348 21.4213636,11.2821136 22.5586364,10.1705193 C23.6954545,9.05892499 24.2640909,7.65434558 24.2640909,5.95634376 C24.2640909,4.24391133 23.69,2.8253386 22.5418182,1.69975099 C21.3936364,0.573288794 19.9477273,0.0104949894 18.2054545,0.0104949894 C17.1272727,0.0104949894 16.0990909,0.244445794 15.1209091,0.714096568 C14.1422727,1.18199818 13.3981818,1.86941998 12.8886364,2.77505011 C12.3790909,3.68111752 12.1245455,4.7835287 12.1245455,6.08359551 Z" id="path6618" fill-rule="nonzero"></path>
                                            <path d="M33.0822727,0.265435773 L33.0822727,1.95906468 C32.6540909,1.35560279 32.0909091,0.879829942 31.3927273,0.532183419 C30.6954545,0.184536896 29.9586364,0.0104949894 29.1831818,0.0104949894 C28.3931818,0.0104949894 27.6840909,0.176665654 27.0563636,0.510756149 C26.4290909,0.844846644 25.975,1.31362284 25.6940909,1.91752202 C25.4136364,2.5214212 25.2731818,3.35577285 25.2731818,4.42145156 L25.2731818,11.5825326 L28.3859091,11.5825326 L28.3859091,6.3827027 C28.3859091,4.79052536 28.4427273,3.81624051 28.5577273,3.45634983 C28.6718182,3.09864561 28.8804545,2.81440632 29.1831818,2.60406924 C29.4859091,2.39504403 29.87,2.28965685 30.3354545,2.28965685 C30.8668182,2.28965685 31.3431818,2.43002733 31.7640909,2.71164288 C32.185,2.99194655 32.4731818,3.34046766 32.6281818,3.75545703 C32.7831818,4.17132098 32.8604545,5.18846037 32.8604545,6.80774977 L32.8604545,11.5825326 L35.9731818,11.5825326 L35.9731818,0.265435773 L33.0822727,0.265435773" id="path6620"></path>
                                            <path d="M45.4113636,6.009256 L45.4113636,8.64087458 L52.4781818,8.64087458 L52.4781818,2.41865776 C51.7913636,1.77802612 50.7963636,1.21523231 49.4927273,0.729401761 C48.1895455,0.242696629 46.8695455,0 45.5331818,0 C43.8354545,0 42.3540909,0.342399028 41.0918182,1.02763438 C39.8290909,1.71330701 38.88,2.69283936 38.245,3.96885515 C37.61,5.24399636 37.2927273,6.63108412 37.2927273,8.12968114 C37.2927273,9.7559672 37.6468182,11.201652 38.3559091,12.4662982 C39.0645455,13.7313817 40.1022727,14.7004191 41.4681818,15.3755967 C42.5095455,15.8942241 43.8054545,16.1531005 45.3559091,16.1531005 C47.3718182,16.1531005 48.9468182,15.746857 50.08,14.9334953 C51.2136364,14.1201336 51.9427273,12.9954206 52.2677273,11.5606681 L49.0113636,10.9746978 C48.7822727,11.7417067 48.3522727,12.347355 47.7209091,12.7916429 C47.0895455,13.2354935 46.3013636,13.4580747 45.3559091,13.4580747 C43.9236364,13.4580747 42.7845455,13.0207835 41.9395455,12.1466383 C41.0931818,11.2729305 40.6713636,9.97679927 40.6713636,8.25780747 C40.6713636,6.40325539 41.0990909,5.0126693 41.9554545,4.0860492 C42.8122727,3.15942909 43.9345455,2.6954631 45.3227273,2.6954631 C46.0095455,2.6954631 46.6977273,2.8253386 47.3886364,3.084215 C48.0790909,3.3435287 48.6713636,3.65794109 49.1663636,4.02701488 L49.1663636,6.009256 L45.4113636,6.009256" id="path6622"></path>
                                            <path d="M56.5886364,5.92398421 C56.5886364,4.80145764 56.8654545,3.94174309 57.4195455,3.34527786 C57.9731818,2.74837534 58.6559091,2.45058002 59.4686364,2.45058002 C60.2804545,2.45058002 60.9618182,2.74837534 61.5122727,3.34527786 C62.0618182,3.94174309 62.3372727,4.8084543 62.3372727,5.94541148 C62.3372727,7.05394473 62.0618182,7.90622533 61.5122727,8.50269056 C60.9618182,9.09959308 60.2804545,9.3973884 59.4686364,9.3973884 C58.6559091,9.3973884 57.9731818,9.09959308 57.4195455,8.50269056 C56.8654545,7.90622533 56.5886364,7.04694807 56.5886364,5.92398421 Z M53.3990909,6.08359551 C53.3990909,7.07799575 53.6531818,8.04047373 54.1627273,8.97102946 C54.6722727,9.90202247 55.3940909,10.6126207 56.3281818,11.1023869 C57.2627273,11.5930276 58.305,11.838348 59.4572727,11.838348 C61.2368182,11.838348 62.6954545,11.2821136 63.8322727,10.1705193 C64.97,9.05892499 65.5386364,7.65434558 65.5386364,5.95634376 C65.5386364,4.24391133 64.9636364,2.8253386 63.8163636,1.69975099 C62.6672727,0.573288794 61.2218182,0.0104949894 59.4795455,0.0104949894 C58.4009091,0.0104949894 57.3727273,0.244445794 56.395,0.714096568 C55.4159091,1.18199818 54.6722727,1.86941998 54.1627273,2.77505011 C53.6531818,3.68111752 53.3990909,4.7835287 53.3990909,6.08359551 Z" id="path6624" fill-rule="nonzero"></path>
                                        </g>
                                    </g>
                                </g>
                                <g id="g6626" transform="translate(64.719101, 0.000000)">
                                    <g id="g6628-Clipped">
                                        <g id="g6628" transform="translate(0.280899, 0.000000)">
                                            <path d="M4.84818182,0.265435773 L0.107272727,11.5825326 L3.375,11.5825326 L5.59,5.80591558 L6.23272727,3.87833586 C6.40227273,4.36766474 6.50954545,4.69169754 6.55363636,4.84781051 C6.65727273,5.1670331 6.76818182,5.48756757 6.88590909,5.80591558 L9.12363636,11.5825326 L12.3245455,11.5825326 L7.65045455,0.265435773 L4.84818182,0.265435773" id="path6634"></path>
                                        </g>
                                    </g>
                                </g>
                            </g>
                        </g>
                    </g>
                </g>
            </g>
        </g>
    </g>
</svg>