<?xml version="1.0" encoding="UTF-8"?>
<svg width="100px" height="100px" viewBox="0 0 100 100" version="1.1" xmlns="http://www.w3.org/2000/svg" xmlns:xlink="http://www.w3.org/1999/xlink">
    <!-- Generator: Sketch 52.6 (67491) - http://www.bohemiancoding.com/sketch -->
    <title>logo-10</title>
    <desc>Created with Sketch.</desc>
    <g id="logo-10" stroke="none" stroke-width="1" fill="none" fill-rule="evenodd">
        <g id="whiteoctober" transform="translate(20.000000, 32.000000)" fill="#000000" fill-rule="nonzero">
            <path d="M0,0 L20.1580576,35.4929577 L29.9995601,18.1654687 L39.840183,35.4929577 L60,0 L0,0 Z M50.1576177,0.558951258 L59.0485756,0.558951258 L54.6033166,8.38426888 L50.1580576,0.558951258 L50.1576177,0.558951258 Z M40.316555,0.558951258 L49.2061933,0.558951258 L44.761814,8.38426888 L40.316555,0.558951258 Z M30.4754923,0.558951258 L39.3651306,0.558951258 L34.9203114,8.38426888 L30.4750524,0.558951258 L30.4754923,0.558951258 Z M20.6339897,0.558951258 L29.523628,0.558951258 L25.0788089,8.38426888 L20.6339897,0.558951258 Z M10.7933669,0.558951258 L19.6821254,0.558951258 L15.2377461,8.38426888 L10.7933669,0.558951258 Z M0.951424424,0.558951258 L9.84106271,0.558951258 L5.39712329,8.38426888 L0.951424424,0.558951258 Z M49.6821254,0.837979727 L54.1265047,8.66329734 L45.2368664,8.66329734 L49.6816856,0.837979727 L49.6821254,0.837979727 Z M39.840183,0.837979727 L44.2845623,8.66329734 L35.3958037,8.66329734 L39.8397431,0.837979727 L39.840183,0.837979727 Z M20.1576177,0.837979727 L24.601997,8.66329734 L15.7136783,8.66329734 L20.1580576,0.837979727 L20.1576177,0.837979727 Z M10.316555,0.837979727 L14.7613741,8.66329734 L5.87305544,8.66329734 L10.3169949,0.837979727 L10.316555,0.837979727 Z M29.9991203,0.837979727 L34.4434996,8.66329734 L25.5560606,8.66329734 L29.9986804,0.837979727 L29.9991203,0.837979727 Z M45.2359867,9.2222486 L54.1273844,9.2222486 L49.6825653,17.0480134 L45.2368664,9.22135428 L45.2359867,9.2222486 Z M35.3953638,9.2222486 L44.2858819,9.2222486 L39.8410627,17.0475662 L35.3953638,9.2222486 Z M25.5538613,9.2222486 L34.4443793,9.2222486 L29.9991203,17.0475662 L25.5538613,9.2222486 Z M15.7132384,9.2222486 L24.6028767,9.2222486 L20.1584974,17.0475662 L15.7132384,9.2222486 Z M5.87129598,9.2222486 L14.7609343,9.2222486 L10.3178746,17.0489077 L5.87217571,9.22180144 L5.87129598,9.2222486 Z M34.9198716,9.50127707 L39.3655704,17.3288305 L30.4750524,17.3288305 L34.9207513,9.50127707 L34.9198716,9.50127707 Z M15.2368664,9.50127707 L19.6838849,17.3292777 L10.792927,17.3292777 L15.2377461,9.50217139 L15.2368664,9.50127707 Z M44.7604944,9.50217139 L49.2053135,17.3288305 L40.3156753,17.3288305 L44.7609343,9.50217139 L44.7604944,9.50217139 Z M25.0779291,9.50217139 L29.523628,17.3288305 L20.6339897,17.3288305 L25.0788089,9.50217139 L25.0779291,9.50217139 Z M40.3178746,17.8873346 L49.2057534,17.8873346 L44.761814,25.7108636 L40.3178746,17.8873346 Z M30.4759321,17.8873346 L39.3642508,17.8873346 L34.9198716,25.7126522 L30.4759321,17.8864403 L30.4759321,17.8873346 Z M20.636189,17.8873346 L29.5231881,17.8873346 L25.0788089,25.7117579 L20.6357492,17.8864403 L20.636189,17.8873346 Z M10.7933669,17.8873346 L19.6821254,17.8873346 L15.2377461,25.7126522 L10.7933669,17.8873346 Z M39.8419424,18.1645744 L44.2863217,25.989892 L35.3966834,25.989892 L39.8415026,18.1645744 L39.8419424,18.1645744 Z M20.1589373,18.1645744 L24.6033166,25.989892 L15.714558,25.989892 L20.1589373,18.1645744 Z M35.394924,26.5488433 L44.2858819,26.5488433 L39.8406228,34.3759496 L35.394924,26.5488433 Z M15.7127986,26.5488433 L24.6033166,26.5488433 L20.1580576,34.3759496 L15.7127986,26.5488433 Z" id="Shape"></path>
        </g>
    </g>
</svg>