<?xml version="1.0" encoding="UTF-8"?>
<svg width="100px" height="100px" viewBox="0 0 100 100" version="1.1" xmlns="http://www.w3.org/2000/svg" xmlns:xlink="http://www.w3.org/1999/xlink">
    <!-- Generator: Sketch 52.6 (67491) - http://www.bohemiancoding.com/sketch -->
    <title>logo-4</title>
    <desc>Created with Sketch.</desc>
    <g id="logo-4" stroke="none" stroke-width="1" fill="none" fill-rule="evenodd">
        <g id="bluefin" transform="translate(17.000000, 38.000000)" fill="#000000">
            <g id="Group">
                <polygon id="Path" points="12.4807692 7.6056338 16.4153846 7.01408451 16.4153846 22.8591549 12.4807692 22.8591549"></polygon>
                <path d="M0.169230769,7.6056338 L4.10384615,6.97183099 L4.10384615,12.6338028 C4.31538462,12.3802817 4.52692308,12.2112676 4.78076923,12.084507 C5.03461538,11.9577465 5.28846154,11.8309859 5.54230769,11.7464789 C5.79615385,11.6619718 6.05,11.5774648 6.26153846,11.5774648 C6.47307692,11.5352113 6.68461538,11.5352113 6.85384615,11.5352113 C7.61538462,11.5352113 8.29230769,11.7042254 8.88461538,12 C9.47692308,12.2957746 9.98461538,12.7183099 10.3653846,13.2253521 C10.7461538,13.7323944 11.0846154,14.3239437 11.2961538,15 C11.5076923,15.6760563 11.5923077,16.3521127 11.5923077,17.0704225 C11.5923077,19.056338 11.0423077,20.5774648 9.9,21.6338028 C8.84230769,22.7323944 7.19230769,23.2394366 4.99230769,23.2394366 C4.06153846,23.2394366 3.17307692,23.1549296 2.32692308,22.943662 C1.48076923,22.7323944 0.761538462,22.5633803 0.169230769,22.3098592 L0.169230769,7.6056338 Z M4.14615385,19.7323944 C4.48461538,19.9014085 4.95,19.9859155 5.54230769,19.9859155 C6.17692308,19.9859155 6.72692308,19.7746479 7.10769231,19.3098592 C7.53076923,18.8873239 7.7,18.1690141 7.7,17.1971831 C7.7,16.943662 7.65769231,16.6901408 7.61538462,16.3943662 C7.53076923,16.1408451 7.44615385,15.8873239 7.31923077,15.6760563 C7.19230769,15.4647887 7.02307692,15.2957746 6.76923077,15.1267606 C6.55769231,15 6.30384615,14.915493 6.00769231,14.915493 C5.33076923,14.915493 4.86538462,15.1267606 4.61153846,15.5492958 C4.31538462,15.971831 4.18846154,16.4788732 4.18846154,17.0704225 C4.14615385,17.0704225 4.14615385,19.7323944 4.14615385,19.7323944 Z" id="Shape" fill-rule="nonzero"></path>
                <path d="M46.3692308,11.4507042 C46.3692308,11.1126761 46.4115385,10.8591549 46.5384615,10.6478873 C46.6653846,10.4366197 46.7923077,10.2676056 46.9615385,10.0985915 C47.1730769,9.97183099 47.3846154,9.84507042 47.6384615,9.8028169 C47.8923077,9.76056338 48.1461538,9.71830986 48.4423077,9.71830986 C48.9923077,9.71830986 49.5,9.8028169 50.0076923,9.92957746 C50.3461538,10.0140845 50.6846154,10.1408451 51.0230769,10.2676056 C51.8269231,9.67605634 52.5461538,8.95774648 52.7576923,7.69014085 C52.2076923,7.3943662 51.5730769,7.14084507 50.8115385,6.97183099 C49.9653846,6.76056338 49.1192308,6.67605634 48.2307692,6.67605634 C47.3,6.67605634 46.4115385,6.8028169 45.5653846,7.09859155 C44.7192308,7.35211268 44.0423077,7.81690141 43.4923077,8.49295775 C43.1961538,8.87323944 42.9423077,9.29577465 42.7307692,9.84507042 C42.5192308,10.3943662 42.4346154,10.9859155 42.4346154,11.6197183 L42.4346154,11.7464789 L40.7423077,11.7464789 L40.7423077,14.7887324 L42.4346154,14.7887324 L42.4346154,22.8591549 L46.3692308,22.8591549 L46.3692308,14.8309859 L49.3730769,14.8309859 L49.3730769,22.8591549 L53.35,22.8591549 L53.35,12.2535211 L46.4115385,11.7464789 L46.4115385,11.4507042 L46.3692308,11.4507042 Z" id="Path"></path>
                <path d="M54.8730769,7.09859155 C53.1384615,6.29577465 50.8961538,3.71830986 51.2769231,1.43661972 C52.0384615,2.61971831 53.0538462,3.67605634 55.1269231,3.67605634 C55.9307692,1.90140845 58.4692308,-0.338028169 60.7115385,0.0845070423 C59.5269231,0.845070423 58.5115385,1.85915493 58.5115385,3.97183099 C60.2461538,4.77464789 62.4884615,7.35211268 62.1076923,9.63380282 C61.3461538,8.45070423 60.3307692,7.3943662 58.2576923,7.3943662 C57.4538462,9.16901408 54.9153846,11.4084507 52.6730769,10.9859155 C53.8153846,10.1830986 54.8730769,9.16901408 54.8730769,7.09859155" id="Path"></path>
                <path d="M40.3615385,22.056338 C40.15,22.1830986 39.9384615,22.3098592 39.6423077,22.4366197 C39.3461538,22.5633803 39.0076923,22.6901408 38.6269231,22.8169014 C38.2461538,22.943662 37.8230769,23.028169 37.3153846,23.1126761 C36.85,23.1971831 36.3,23.2394366 35.75,23.2394366 C33.7192308,23.2394366 32.1538462,22.7323944 31.0961538,21.6760563 C29.9961538,20.6619718 29.4884615,19.1830986 29.4884615,17.3239437 C29.4884615,16.6056338 29.6153846,15.8450704 29.8269231,15.1267606 C30.0807692,14.4084507 30.4192308,13.7746479 30.8846154,13.2253521 C31.35,12.6760563 31.9423077,12.2112676 32.6615385,11.8732394 C33.3807692,11.5352113 34.2269231,11.3661972 35.2,11.3661972 C35.9615385,11.3661972 36.6384615,11.4929577 37.3153846,11.7464789 C37.9923077,12 38.5423077,12.4225352 39.05,12.9295775 C39.5576923,13.4788732 39.9384615,14.1126761 40.2346154,14.915493 C40.4884615,15.7183099 40.6576923,16.6478873 40.6576923,17.7042254 L40.6576923,18.4647887 L33.2538462,18.4647887 C33.2538462,18.6760563 33.3384615,18.8450704 33.4230769,19.056338 C33.5076923,19.2676056 33.6769231,19.4366197 33.8461538,19.6478873 C34.0153846,19.8591549 34.3538462,19.9859155 34.6923077,20.0704225 C35.0307692,20.1971831 35.4538462,20.2394366 36.0038462,20.2394366 C36.6807692,20.2394366 37.2730769,20.1549296 37.8230769,19.9859155 C38.3730769,19.8169014 38.7961538,19.6478873 39.1346154,19.4366197 L40.3615385,22.056338 Z M37.1884615,16.0985915 C37.1884615,15.8873239 37.1461538,15.7183099 37.0615385,15.5070423 C36.9769231,15.2957746 36.85,15.1267606 36.7230769,14.9577465 C36.5538462,14.7887324 36.3423077,14.6619718 36.1307692,14.5352113 C35.8769231,14.4084507 35.5807692,14.3661972 35.2423077,14.3661972 C34.9038462,14.3661972 34.6076923,14.4084507 34.3961538,14.5352113 C34.1423077,14.6619718 33.9307692,14.7887324 33.8038462,14.9577465 C33.6346154,15.1267606 33.55,15.2957746 33.4653846,15.5070423 C33.3807692,15.7183099 33.3384615,15.8873239 33.3384615,16.0985915 L37.1884615,16.0985915 Z" id="Shape" fill-rule="nonzero"></path>
                <path d="M24.7076923,12.2535211 L24.7076923,12.5492958 L24.7076923,17.7042254 C24.7076923,17.9577465 24.6653846,18.1690141 24.6230769,18.4225352 C24.5807692,18.6760563 24.4538462,18.8450704 24.3269231,19.056338 C24.2,19.2676056 24.0307692,19.3943662 23.8192308,19.5211268 C23.6076923,19.6478873 23.3538462,19.6901408 23.0576923,19.6901408 C22.4653846,19.6901408 22.0846154,19.5211268 21.8730769,19.1830986 C21.6615385,18.8450704 21.5346154,18.4225352 21.5346154,17.8732394 L21.5346154,12.2957746 L21.5346154,11.6619718 L17.5153846,12.2535211 L17.5153846,12.5492958 L17.5153846,14.6197183 L17.5153846,18.7605634 C17.5153846,19.5633803 17.6,20.1971831 17.8115385,20.7887324 C18.0230769,21.3380282 18.2769231,21.8028169 18.6576923,22.1408451 C18.9961538,22.4788732 19.4192308,22.7746479 19.8846154,22.9014085 C20.35,23.0704225 20.9,23.1549296 21.4923077,23.1549296 C21.7038462,23.1549296 21.9153846,23.1126761 22.2115385,23.0704225 C22.4653846,23.028169 22.7615385,22.943662 23.0576923,22.8169014 C23.3538462,22.6901408 23.65,22.5633803 23.9038462,22.3521127 C24.1576923,22.1408451 24.4538462,21.9295775 24.6653846,21.6760563 L24.7923077,22.8169014 L28.6,22.8169014 L28.6,14.6197183 L28.6,12.2957746 L28.6,11.6619718 L24.7076923,12.2535211 Z" id="Path"></path>
                <path d="M65.5769231,13.8591549 C65.3653846,13.3098592 65.1115385,12.8450704 64.7307692,12.5070423 C64.3923077,12.1690141 63.9692308,11.8732394 63.4615385,11.7464789 C62.9538462,11.5774648 62.4461538,11.4929577 61.8538462,11.4929577 C61.6423077,11.4929577 61.4307692,11.5352113 61.1346154,11.5774648 C60.8807692,11.6197183 60.5846154,11.7042254 60.2884615,11.8309859 C59.9923077,11.9577465 59.6961538,12.084507 59.4423077,12.2957746 C59.1461538,12.5070423 58.8923077,12.7183099 58.6807692,12.971831 L58.6807692,11.7042254 L54.7461538,12.3380282 L54.7461538,12.3802817 L54.7461538,14.7042254 L54.7461538,22.943662 L58.6807692,22.943662 L58.6807692,17.028169 C58.6807692,16.7746479 58.7230769,16.5633803 58.7653846,16.3098592 C58.8076923,16.056338 58.9346154,15.8873239 59.0615385,15.6760563 C59.1884615,15.4647887 59.4,15.3380282 59.6115385,15.2112676 C59.8653846,15.084507 60.1615385,15.0422535 60.5,15.0422535 C61.0076923,15.0422535 61.3461538,15.2112676 61.6,15.5492958 C61.8538462,15.8873239 61.9384615,16.3098592 61.9384615,16.8591549 L61.9384615,22.9014085 L65.8730769,22.9014085 L65.8730769,15.8873239 C65.8730769,15.084507 65.7884615,14.4084507 65.5769231,13.8591549" id="Path"></path>
            </g>
        </g>
    </g>
</svg>