<?xml version="1.0" encoding="UTF-8"?>
<svg width="100px" height="100px" viewBox="0 0 100 100" version="1.1" xmlns="http://www.w3.org/2000/svg" xmlns:xlink="http://www.w3.org/1999/xlink">
    <!-- Generator: Sketch 52.6 (67491) - http://www.bohemiancoding.com/sketch -->
    <title>logo-16</title>
    <desc>Created with Sketch.</desc>
    <g id="logo-16" stroke="none" stroke-width="1" fill="none" fill-rule="evenodd">
        <g id="ycn" transform="translate(23.000000, 23.000000)" fill="#000000">
            <polygon id="Path" fill-opacity="0.05" points="0 55 55 55 55 0 0 0"></polygon>
            <path d="M35.657718,14.8417416 C35.657718,17.0823016 37.4742283,18.8996409 39.715262,18.8996409 C41.3136489,18.8996409 42.6921363,17.9729128 43.3536113,16.6292398 L48.868508,17.5972954 C47.6846975,21.5334624 44.0366381,24.4022223 39.715262,24.4022223 C34.4350669,24.4022223 30.1551364,20.1220552 30.1551364,14.8417416 C30.1551364,9.56166489 34.4350669,5.28137932 39.715262,5.28137932 C44.0366381,5.28137932 47.6846975,8.1501393 48.868508,12.0859511 L43.3536113,13.0538882 C42.6921363,11.7108073 41.3136489,10.7839608 39.715262,10.7839608 C37.4742283,10.7839608 35.657718,12.6008263 35.657718,14.8417416 Z" id="Path"></path>
            <polygon id="Path" points="26.4142384 5.47854292 19.436068 17.3462523 19.436068 23.9806593 13.2508149 23.9806593 13.2508149 17.4259466 6.27264448 5.47854292 13.198238 5.47854292 16.3699075 11.5579315 19.5683393 5.47854292"></polygon>
            <polygon id="Path" points="7.09208719 29.7885188 12.8808815 29.7885188 19.4628301 37.9558285 19.4628301 29.7885188 25.5949141 29.7885188 25.5949141 48.2917009 20.0970693 48.2917009 13.2245264 39.7535105 13.2245264 48.2917009 7.09208719 48.2917009"></polygon>
        </g>
    </g>
</svg>