<svg id="Layer_1" data-name="Layer 1" xmlns="http://www.w3.org/2000/svg" viewBox="0 0 1000 1000"><defs><style>.cls-1{fill:#fff;}</style></defs><title>2logo-white</title><path class="cls-1" d="M499.44,423.06a22.12,22.12,0,0,0,22.13-22.12h0c0-12.23-17.1-44.26-22.13-44.26s-22.13,32-22.13,44.26h0A22.12,22.12,0,0,0,499.44,423.06Z"/><path class="cls-1" d="M718,480.28a66.56,66.56,0,0,0-13.9-22.79,62.79,62.79,0,0,0-21.63-14.9,71.88,71.88,0,0,0-28.08-5.3,48,48,0,0,0-14.05,2,60.73,60.73,0,0,0-12.17,5.15,51.22,51.22,0,0,0-9.75,7,47.24,47.24,0,0,0-6.73,7.59h-.58V440.73H571.53V643.32h43V565.1h.58a40,40,0,0,0,19,14.18,73.9,73.9,0,0,0,25.08,4.16,56.64,56.64,0,0,0,26.65-6.16,61.56,61.56,0,0,0,19.91-16.48,76.82,76.82,0,0,0,12.61-23.64,87.84,87.84,0,0,0,4.44-27.94A82.79,82.79,0,0,0,718,480.28Zm-32.4,30.08c0,10.38-3,18.89-8.94,25.29s-14.38,9.63-25.12,9.63-19.2-3.24-25.12-9.63-8.94-14.91-8.94-25.29,3-18.87,8.94-25.28,14.38-9.63,25.12-9.63,19.19,3.24,25.12,9.63S685.56,500,685.56,510.36Z"/><path class="cls-1" d="M409.7,457.49a62.89,62.89,0,0,0-21.63-14.9,71.89,71.89,0,0,0-28.09-5.3,47.85,47.85,0,0,0-14,2,60.82,60.82,0,0,0-12.18,5.15,51.45,51.45,0,0,0-9.74,7,47.33,47.33,0,0,0-6.74,7.59h-.57V440.73H277.17V643.32h43V565.1h.57a40,40,0,0,0,19.06,14.18,73.84,73.84,0,0,0,25.07,4.16,56.65,56.65,0,0,0,26.66-6.16,61.56,61.56,0,0,0,19.91-16.48A76.82,76.82,0,0,0,424,537.16a87.84,87.84,0,0,0,4.44-27.94,82.79,82.79,0,0,0-4.87-28.94A66.56,66.56,0,0,0,409.7,457.49Zm-27.2,78.38q-9,9.75-25.37,9.74t-25.36-9.74q-9-9.74-9-25.51t9-25.5q9-9.74,25.36-9.74t25.37,9.74q9,9.75,9,25.5T382.5,535.87Z"/><polygon class="cls-1" points="518.73 440.53 445.28 440.53 445.28 479.84 479.28 479.84 479.04 545.79 447.9 545.79 447.9 585.09 550.1 585.09 550.1 545.79 518.34 545.79 518.73 440.53"/></svg>