<svg id="Layer_1" data-name="Layer 1" xmlns="http://www.w3.org/2000/svg" viewBox="0 0 50 50"><defs><style>.cls-1{fill:#d1d1d1;}</style></defs><title>2Artboard 3</title><path class="cls-1" d="M37.45,25.38a7.74,7.74,0,0,0,0-11h0a7.78,7.78,0,0,0-11,0L25,15.9l-1.47-1.48a7.76,7.76,0,0,0-11,0,7.65,7.65,0,0,0-2.26,5.5,7.82,7.82,0,0,0,2.26,5.49L25,37.85ZM12.22,19.92a5.63,5.63,0,0,1,1.7-4.09,5.77,5.77,0,0,1,8.18,0L25,18.68l2.89-2.88a5.79,5.79,0,0,1,9.88,4.09A5.65,5.65,0,0,1,36.05,24L25,35.07,13.92,24A5.88,5.88,0,0,1,12.22,19.92Z"/></svg>