<?xml version="1.0" encoding="utf-8"?>
<!-- Generator: Adobe Illustrator 22.1.0, SVG Export Plug-In . SVG Version: 6.00 Build 0)  -->
<svg version="1.1" id="Layer_1" xmlns="http://www.w3.org/2000/svg" xmlns:xlink="http://www.w3.org/1999/xlink" x="0px" y="0px"
	 viewBox="0 0 50 50" style="enable-background:new 0 0 50 50;" xml:space="preserve">
<style type="text/css">
	.st0{fill:#D1D1D1;}
</style>
<title>2Artboard 3</title>
<path class="st0" d="M34.8,25.5c3.7-3.7,3.8-9.7,0.1-13.5c0,0,0,0-0.1-0.1l0,0C31,8.2,25,8.2,21.3,12l-1.8,1.9L17.7,12
	c-3.7-3.7-9.8-3.7-13.5,0c0,0,0,0,0,0c-1.8,1.8-2.8,4.2-2.8,6.8c0,2.5,1,5,2.8,6.7l15.3,15.3L34.8,25.5z M3.8,18.8
	c0-1.9,0.7-3.7,2.1-5c2.8-2.8,7.3-2.8,10,0c0,0,0,0,0,0l3.6,3.5l3.6-3.5c2.8-2.8,7.3-2.8,10.1,0c1.3,1.3,2.1,3.1,2.1,5
	c0,1.9-0.7,3.7-2.1,5.1L19.5,37.4L5.9,23.8C4.5,22.4,3.8,20.6,3.8,18.8z"/>
</svg>
