<svg id="Layer_1" data-name="Layer 1" xmlns="http://www.w3.org/2000/svg" viewBox="0 0 1528 1000"><defs><style>.cls-1{fill:#fff;}</style></defs><title>logo-full-white</title><path class="cls-1" d="M508,412.35h0A25.33,25.33,0,0,1,482.67,387h0c0-14,19.57-50.67,25.33-50.67h0c5.76,0,25.33,36.68,25.33,50.67h0A25.33,25.33,0,0,1,508,412.35Z"/><path class="cls-1" d="M590.53,432.57h45.28v21h.65a55,55,0,0,1,7.71-8.7,58.44,58.44,0,0,1,11.16-8,68.74,68.74,0,0,1,13.94-5.91,54.91,54.91,0,0,1,16.07-2.3,82.36,82.36,0,0,1,32.16,6.07,71.74,71.74,0,0,1,24.76,17.06,76.34,76.34,0,0,1,15.92,26.09A95.06,95.06,0,0,1,763.75,511a100.47,100.47,0,0,1-5.08,32A88,88,0,0,1,744.23,570a70.36,70.36,0,0,1-22.8,18.87Q708,596,690.92,596a84.52,84.52,0,0,1-28.7-4.76A45.8,45.8,0,0,1,640.4,575h-.66v89.56H590.53Zm52.19,79.72q0,18,10.33,29.2t29,11.16q18.7,0,29-11.16t10.33-29.2q0-18-10.33-29.2t-29-11.15q-18.69,0-29,11.15T642.72,512.29Z"/><path class="cls-1" d="M253.53,432.57h45.28v21h.65a55,55,0,0,1,7.71-8.7,58.44,58.44,0,0,1,11.16-8,68.74,68.74,0,0,1,13.94-5.91,54.91,54.91,0,0,1,16.07-2.3,82.36,82.36,0,0,1,32.16,6.07,71.74,71.74,0,0,1,24.76,17.06,76.34,76.34,0,0,1,15.92,26.09A95.06,95.06,0,0,1,426.75,511a100.47,100.47,0,0,1-5.08,32A88,88,0,0,1,407.23,570a70.36,70.36,0,0,1-22.8,18.87Q371,596,353.92,596a84.52,84.52,0,0,1-28.7-4.76A45.8,45.8,0,0,1,303.4,575h-.66v89.56H253.53Zm52.19,79.72q0,18,10.33,29.2t29,11.16q18.71,0,29-11.16t10.33-29.2q0-18-10.33-29.2t-29-11.15q-18.69,0-29,11.15T305.72,512.29Z"/><polygon class="cls-1" points="529.5 592.43 484.5 592.26 484.92 477.35 446 477.35 446 432.35 530.08 432.35 529.5 592.43"/><rect class="cls-1" x="449" y="552.85" width="117" height="45"/><path class="cls-1" d="M682.08,553c-12.52,0-22.38-3.79-29.31-11.27s-10.43-17.38-10.43-29.46,3.51-22,10.43-29.45,16.8-11.27,29.31-11.27,22.38,3.79,29.31,11.27,10.44,17.38,10.44,29.45-3.51,22-10.44,29.46S694.6,553,682.08,553Zm0-80.7c-12.29,0-22,3.71-28.75,11s-10.24,17.07-10.24,28.94,3.44,21.62,10.24,29,16.45,11,28.75,11,22-3.71,28.76-11,10.24-17.07,10.24-29-3.45-21.61-10.24-28.94S694.38,472.32,682.08,472.32Z"/><path class="cls-1" d="M924.74,385.43h11v5.12h.16a13.14,13.14,0,0,1,1.88-2.12,14.15,14.15,0,0,1,2.72-2,16.47,16.47,0,0,1,3.4-1.44,13.22,13.22,0,0,1,3.92-.56A20,20,0,0,1,955.7,386a17.32,17.32,0,0,1,6,4.16,18.48,18.48,0,0,1,3.88,6.36,23,23,0,0,1,1.36,8.08,24.41,24.41,0,0,1-1.24,7.8,21.32,21.32,0,0,1-3.52,6.6,17.2,17.2,0,0,1-5.56,4.6,15.82,15.82,0,0,1-7.44,1.72,20.69,20.69,0,0,1-7-1.16,11.3,11.3,0,0,1-5.32-4h-.16v22.4h-12Zm11,19.44A10.08,10.08,0,0,0,938.3,412a10.57,10.57,0,0,0,14.16,0,11.32,11.32,0,0,0,0-14.24,10.57,10.57,0,0,0-14.16,0A10,10,0,0,0,935.78,404.87Z"/><path class="cls-1" d="M1010.82,417.59a19.27,19.27,0,0,1-7.28,5.68,21.84,21.84,0,0,1-9.12,2,24.49,24.49,0,0,1-8.44-1.44,20.45,20.45,0,0,1-6.88-4.12,19.39,19.39,0,0,1-4.6-6.44,21.84,21.84,0,0,1,0-16.8,19.19,19.19,0,0,1,4.6-6.44,20.29,20.29,0,0,1,6.88-4.12,24.49,24.49,0,0,1,8.44-1.44,19.22,19.22,0,0,1,7.56,1.44,15.65,15.65,0,0,1,5.76,4.12,18.67,18.67,0,0,1,3.64,6.44,26,26,0,0,1,1.28,8.4v3.76H984.82a9.51,9.51,0,0,0,3.12,5.48,8.82,8.82,0,0,0,5.92,2,9,9,0,0,0,5-1.32,13.5,13.5,0,0,0,3.56-3.4Zm-10.16-17.12a6.94,6.94,0,0,0-2-5.2,7.11,7.11,0,0,0-5.36-2.16,9,9,0,0,0-3.52.64,8.66,8.66,0,0,0-2.6,1.64,7.12,7.12,0,0,0-1.68,2.32,7.78,7.78,0,0,0-.68,2.76Z"/><path class="cls-1" d="M1018.5,404.87a20.32,20.32,0,0,1,1.68-8.4,19.19,19.19,0,0,1,4.6-6.44,20.29,20.29,0,0,1,6.88-4.12,25.45,25.45,0,0,1,16.88,0,20.29,20.29,0,0,1,6.88,4.12,19.19,19.19,0,0,1,4.6,6.44,21.84,21.84,0,0,1,0,16.8,19.39,19.39,0,0,1-4.6,6.44,20.45,20.45,0,0,1-6.88,4.12,25.45,25.45,0,0,1-16.88,0,20.45,20.45,0,0,1-6.88-4.12,19.39,19.39,0,0,1-4.6-6.44A20.39,20.39,0,0,1,1018.5,404.87Zm12,0A10.08,10.08,0,0,0,1033,412a10.57,10.57,0,0,0,14.16,0,11.32,11.32,0,0,0,0-14.24,10.57,10.57,0,0,0-14.16,0A10,10,0,0,0,1030.5,404.87Z"/><path class="cls-1" d="M1069.86,385.43h11v5.12h.16a13.14,13.14,0,0,1,1.88-2.12,13.84,13.84,0,0,1,2.72-2,16.47,16.47,0,0,1,3.4-1.44,13.18,13.18,0,0,1,3.92-.56,20,20,0,0,1,7.84,1.48,17.32,17.32,0,0,1,6,4.16,18.48,18.48,0,0,1,3.88,6.36,23,23,0,0,1,1.36,8.08,24.41,24.41,0,0,1-1.24,7.8,21.54,21.54,0,0,1-3.52,6.6,17.2,17.2,0,0,1-5.56,4.6,15.88,15.88,0,0,1-7.44,1.72,20.69,20.69,0,0,1-7-1.16,11.3,11.3,0,0,1-5.32-4h-.16v22.4h-12Zm11,19.44a10.08,10.08,0,0,0,2.52,7.12,10.57,10.57,0,0,0,14.16,0,11.32,11.32,0,0,0,0-14.24,10.57,10.57,0,0,0-14.16,0A10,10,0,0,0,1080.9,404.87Z"/><path class="cls-1" d="M1119.3,363.83h12v60.48h-12Z"/><path class="cls-1" d="M1176.74,417.59a19.27,19.27,0,0,1-7.28,5.68,21.84,21.84,0,0,1-9.12,2,24.49,24.49,0,0,1-8.44-1.44,20.45,20.45,0,0,1-6.88-4.12,19.39,19.39,0,0,1-4.6-6.44,21.84,21.84,0,0,1,0-16.8A19.19,19.19,0,0,1,1145,390a20.29,20.29,0,0,1,6.88-4.12,24.49,24.49,0,0,1,8.44-1.44,19.22,19.22,0,0,1,7.56,1.44,15.65,15.65,0,0,1,5.76,4.12,18.67,18.67,0,0,1,3.64,6.44,26,26,0,0,1,1.28,8.4v3.76h-27.84a9.51,9.51,0,0,0,3.12,5.48,8.82,8.82,0,0,0,5.92,2,9,9,0,0,0,5-1.32,13.5,13.5,0,0,0,3.56-3.4Zm-10.16-17.12a6.94,6.94,0,0,0-2-5.2,7.11,7.11,0,0,0-5.36-2.16,9,9,0,0,0-3.52.64,8.66,8.66,0,0,0-2.6,1.64,7.12,7.12,0,0,0-1.68,2.32,7.57,7.57,0,0,0-.68,2.76Z"/><path class="cls-1" d="M922.82,469.19a7,7,0,1,1,2,4.92A6.71,6.71,0,0,1,922.82,469.19Zm1,12.24h12v38.88h-12Z"/><path class="cls-1" d="M944.42,481.43h11.52v5.28h.16a9.81,9.81,0,0,1,1.6-2.24,11.5,11.5,0,0,1,2.48-2,14,14,0,0,1,3.28-1.44,13.48,13.48,0,0,1,4-.56,16.42,16.42,0,0,1,7.36,1.4,10.55,10.55,0,0,1,4.36,3.88,15.61,15.61,0,0,1,2.12,5.84,44.66,44.66,0,0,1,.56,7.28v21.44h-12v-19q0-1.68-.12-3.48a11,11,0,0,0-.72-3.32,5.16,5.16,0,0,0-5.4-3.44,7.43,7.43,0,0,0-3.76.84,5.7,5.7,0,0,0-2.2,2.24,9.23,9.23,0,0,0-1,3.16,27.2,27.2,0,0,0-.24,3.68v19.36h-12Z"/><path class="cls-1" d="M1012.34,492.87a8.49,8.49,0,0,0-7-3.28,6.56,6.56,0,0,0-3,.72,2.54,2.54,0,0,0-1.44,2.48,2.23,2.23,0,0,0,1.48,2.12,20.14,20.14,0,0,0,3.76,1.2l4.88,1.12a18.16,18.16,0,0,1,4.88,1.88,10.89,10.89,0,0,1,3.76,3.48,10.32,10.32,0,0,1,1.48,5.88,10.94,10.94,0,0,1-1.64,6.2,12.62,12.62,0,0,1-4.2,3.92,18.28,18.28,0,0,1-5.76,2.08,34.21,34.21,0,0,1-6.32.6,30.69,30.69,0,0,1-8.24-1.16,15.5,15.5,0,0,1-7-4.12l7.28-8.08a12.17,12.17,0,0,0,3.72,3.16,10,10,0,0,0,4.76,1.08,11.11,11.11,0,0,0,3.76-.6,2.22,2.22,0,0,0,1.68-2.2,2.42,2.42,0,0,0-1.48-2.28,15.8,15.8,0,0,0-3.76-1.28l-4.88-1.12a20.21,20.21,0,0,1-4.88-1.8,9.59,9.59,0,0,1-5.24-9.28,11.86,11.86,0,0,1,1.4-5.92,12.14,12.14,0,0,1,3.68-4.08,15.75,15.75,0,0,1,5.24-2.36,23.84,23.84,0,0,1,6-.76,28,28,0,0,1,7.76,1.12,14.34,14.34,0,0,1,6.64,4Z"/><path class="cls-1" d="M1028.5,481.43h11v5.12h.16a13.14,13.14,0,0,1,1.88-2.12,13.84,13.84,0,0,1,2.72-2,16.47,16.47,0,0,1,3.4-1.44,13.18,13.18,0,0,1,3.92-.56,20,20,0,0,1,7.84,1.48,17.32,17.32,0,0,1,6,4.16,18.48,18.48,0,0,1,3.88,6.36,23,23,0,0,1,1.36,8.08,24.41,24.41,0,0,1-1.24,7.8A21.54,21.54,0,0,1,1066,515a17.2,17.2,0,0,1-5.56,4.6,15.88,15.88,0,0,1-7.44,1.72,20.69,20.69,0,0,1-7-1.16,11.3,11.3,0,0,1-5.32-4h-.16v22.4h-12Zm11,19.44a10.08,10.08,0,0,0,2.52,7.12,10.57,10.57,0,0,0,14.16,0,11.32,11.32,0,0,0,0-14.24,10.57,10.57,0,0,0-14.16,0A10,10,0,0,0,1039.54,500.87Z"/><path class="cls-1" d="M1077,469.19a7,7,0,1,1,2,4.92A6.71,6.71,0,0,1,1077,469.19Zm1,12.24h12v38.88h-12Z"/><path class="cls-1" d="M1098.58,481.43h12v6.24h.16a14.75,14.75,0,0,1,4.56-5.4,11.52,11.52,0,0,1,6.64-1.8c.69,0,1.39,0,2.08.08a10.12,10.12,0,0,1,1.92.32v11a17,17,0,0,0-2.52-.6,15.58,15.58,0,0,0-2.6-.2,12.75,12.75,0,0,0-5.44,1,7.22,7.22,0,0,0-3.08,2.68,10.1,10.1,0,0,0-1.4,4.12,40.7,40.7,0,0,0-.32,5.28v16.24h-12Z"/><path class="cls-1" d="M1130.34,469.19a7,7,0,1,1,2,4.92A6.71,6.71,0,0,1,1130.34,469.19Zm1,12.24h12v38.88h-12Z"/><path class="cls-1" d="M1151.94,481.43h11.52v5.28h.16a9.52,9.52,0,0,1,1.6-2.24,11.26,11.26,0,0,1,2.48-2A13.84,13.84,0,0,1,1171,481a13.48,13.48,0,0,1,4-.56,16.44,16.44,0,0,1,7.36,1.4,10.55,10.55,0,0,1,4.36,3.88,15.61,15.61,0,0,1,2.12,5.84,44.66,44.66,0,0,1,.56,7.28v21.44h-12v-19q0-1.68-.12-3.48a11,11,0,0,0-.72-3.32,5.16,5.16,0,0,0-5.4-3.44,7.4,7.4,0,0,0-3.76.84,5.7,5.7,0,0,0-2.2,2.24,9,9,0,0,0-1,3.16,27.2,27.2,0,0,0-.24,3.68v19.36h-12Z"/><path class="cls-1" d="M1238.66,517q0,11-5.56,16.76t-16.92,5.72a45.68,45.68,0,0,1-10.24-1.16,23.28,23.28,0,0,1-9.28-4.52l6.64-9.92a25.38,25.38,0,0,0,5.88,3.68,16.66,16.66,0,0,0,6.76,1.36c3.68,0,6.39-.9,8.12-2.68a9.44,9.44,0,0,0,2.6-6.84v-3.76h-.16a11.44,11.44,0,0,1-5.16,4,16.57,16.57,0,0,1-5.8,1.16,20.14,20.14,0,0,1-7.84-1.48,17.59,17.59,0,0,1-6-4.16,18.66,18.66,0,0,1-3.88-6.36,24.06,24.06,0,0,1-.12-15.6,20.46,20.46,0,0,1,3.52-6.48,17.49,17.49,0,0,1,5.56-4.52,15.76,15.76,0,0,1,7.44-1.72,18.1,18.1,0,0,1,8.48,2,13.71,13.71,0,0,1,2.88,2,12.18,12.18,0,0,1,1.92,2.12h.16v-5.12h11Zm-30.24-16.4a9.34,9.34,0,0,0,.72,3.64,9.46,9.46,0,0,0,2,3,10.65,10.65,0,0,0,3,2.12,9.33,9.33,0,0,0,7.56,0,10.57,10.57,0,0,0,3.08-2.12,9.46,9.46,0,0,0,2-3,9.44,9.44,0,0,0-2-10.32,10.38,10.38,0,0,0-3.08-2.12,9.33,9.33,0,0,0-7.56,0,10.45,10.45,0,0,0-3,2.12,9.37,9.37,0,0,0-2.76,6.68Z"/><path class="cls-1" d="M924.74,569.43h11v5.12h.16a13.14,13.14,0,0,1,1.88-2.12,14.15,14.15,0,0,1,2.72-2,16.47,16.47,0,0,1,3.4-1.44,13.22,13.22,0,0,1,3.92-.56A20,20,0,0,1,955.7,570a17.32,17.32,0,0,1,6,4.16,18.48,18.48,0,0,1,3.88,6.36,23,23,0,0,1,1.36,8.08,24.41,24.41,0,0,1-1.24,7.8,21.32,21.32,0,0,1-3.52,6.6,17.2,17.2,0,0,1-5.56,4.6,15.82,15.82,0,0,1-7.44,1.72,20.69,20.69,0,0,1-7-1.16,11.3,11.3,0,0,1-5.32-4h-.16v22.4h-12Zm11,19.44A10.08,10.08,0,0,0,938.3,596a10.57,10.57,0,0,0,14.16,0,11.32,11.32,0,0,0,0-14.24,10.57,10.57,0,0,0-14.16,0A10,10,0,0,0,935.78,588.87Z"/><path class="cls-1" d="M1010.82,601.59a19.27,19.27,0,0,1-7.28,5.68,21.84,21.84,0,0,1-9.12,2,24.49,24.49,0,0,1-8.44-1.44,20.45,20.45,0,0,1-6.88-4.12,19.39,19.39,0,0,1-4.6-6.44,21.84,21.84,0,0,1,0-16.8,19.19,19.19,0,0,1,4.6-6.44,20.29,20.29,0,0,1,6.88-4.12,24.49,24.49,0,0,1,8.44-1.44,19.22,19.22,0,0,1,7.56,1.44,15.65,15.65,0,0,1,5.76,4.12,18.67,18.67,0,0,1,3.64,6.44,26,26,0,0,1,1.28,8.4v3.76H984.82a9.51,9.51,0,0,0,3.12,5.48,8.82,8.82,0,0,0,5.92,2,9,9,0,0,0,5-1.32,13.5,13.5,0,0,0,3.56-3.4Zm-10.16-17.12a6.94,6.94,0,0,0-2-5.2,7.11,7.11,0,0,0-5.36-2.16,9,9,0,0,0-3.52.64,8.66,8.66,0,0,0-2.6,1.64,7.12,7.12,0,0,0-1.68,2.32,7.78,7.78,0,0,0-.68,2.76Z"/><path class="cls-1" d="M1018.5,588.87a20.32,20.32,0,0,1,1.68-8.4,19.19,19.19,0,0,1,4.6-6.44,20.29,20.29,0,0,1,6.88-4.12,25.45,25.45,0,0,1,16.88,0,20.29,20.29,0,0,1,6.88,4.12,19.19,19.19,0,0,1,4.6,6.44,21.84,21.84,0,0,1,0,16.8,19.39,19.39,0,0,1-4.6,6.44,20.45,20.45,0,0,1-6.88,4.12,25.45,25.45,0,0,1-16.88,0,20.45,20.45,0,0,1-6.88-4.12,19.39,19.39,0,0,1-4.6-6.44A20.39,20.39,0,0,1,1018.5,588.87Zm12,0A10.08,10.08,0,0,0,1033,596a10.57,10.57,0,0,0,14.16,0,11.32,11.32,0,0,0,0-14.24,10.57,10.57,0,0,0-14.16,0A10,10,0,0,0,1030.5,588.87Z"/><path class="cls-1" d="M1069.86,569.43h11v5.12h.16a13.14,13.14,0,0,1,1.88-2.12,13.84,13.84,0,0,1,2.72-2,16.47,16.47,0,0,1,3.4-1.44,13.18,13.18,0,0,1,3.92-.56,20,20,0,0,1,7.84,1.48,17.32,17.32,0,0,1,6,4.16,18.48,18.48,0,0,1,3.88,6.36,23,23,0,0,1,1.36,8.08,24.41,24.41,0,0,1-1.24,7.8,21.54,21.54,0,0,1-3.52,6.6,17.2,17.2,0,0,1-5.56,4.6,15.88,15.88,0,0,1-7.44,1.72,20.69,20.69,0,0,1-7-1.16,11.3,11.3,0,0,1-5.32-4h-.16v22.4h-12Zm11,19.44a10.08,10.08,0,0,0,2.52,7.12,10.57,10.57,0,0,0,14.16,0,11.32,11.32,0,0,0,0-14.24,10.57,10.57,0,0,0-14.16,0A10,10,0,0,0,1080.9,588.87Z"/><path class="cls-1" d="M1119.3,547.83h12v60.48h-12Z"/><path class="cls-1" d="M1176.74,601.59a19.27,19.27,0,0,1-7.28,5.68,21.84,21.84,0,0,1-9.12,2,24.49,24.49,0,0,1-8.44-1.44,20.45,20.45,0,0,1-6.88-4.12,19.39,19.39,0,0,1-4.6-6.44,21.84,21.84,0,0,1,0-16.8A19.19,19.19,0,0,1,1145,574a20.29,20.29,0,0,1,6.88-4.12,24.49,24.49,0,0,1,8.44-1.44,19.22,19.22,0,0,1,7.56,1.44,15.65,15.65,0,0,1,5.76,4.12,18.67,18.67,0,0,1,3.64,6.44,26,26,0,0,1,1.28,8.4v3.76h-27.84a9.51,9.51,0,0,0,3.12,5.48,8.82,8.82,0,0,0,5.92,2,9,9,0,0,0,5-1.32,13.5,13.5,0,0,0,3.56-3.4Zm-10.16-17.12a6.94,6.94,0,0,0-2-5.2,7.11,7.11,0,0,0-5.36-2.16,9,9,0,0,0-3.52.64,8.66,8.66,0,0,0-2.6,1.64,7.12,7.12,0,0,0-1.68,2.32,7.57,7.57,0,0,0-.68,2.76Z"/><rect class="cls-1" x="831" y="342.43" width="10" height="316"/></svg>