<?xml version="1.0" encoding="utf-8"?>
<!-- Generator: Adobe Illustrator 22.1.0, SVG Export Plug-In . SVG Version: 6.00 Build 0)  -->
<svg version="1.1" id="Layer_1" xmlns="http://www.w3.org/2000/svg" xmlns:xlink="http://www.w3.org/1999/xlink" x="0px" y="0px"
	 viewBox="0 0 1011.1 336.9" style="enable-background:new 0 0 1011.1 336.9;" xml:space="preserve">
<style type="text/css">
	.st0{fill:#FFFFFF;}
</style>
<title>logo-full-white</title>
<g>
	<path class="st0" d="M263.5,80.4L263.5,80.4c-14,0-25.3-11.3-25.3-25.3c0,0,0,0,0,0l0,0c0-14,19.6-50.7,25.3-50.7l0,0
		c5.8,0,25.3,36.7,25.3,50.7l0,0C288.8,69,277.5,80.3,263.5,80.4C263.5,80.4,263.5,80.4,263.5,80.4z"/>
	<path class="st0" d="M346,100.6h45.3v21h0.7c2.3-3.2,4.8-6.1,7.7-8.7c3.4-3.1,7.1-5.8,11.2-8c4.4-2.5,9.1-4.5,13.9-5.9
		c5.2-1.6,10.6-2.3,16.1-2.3c11-0.1,22,1.9,32.2,6.1c9.4,3.9,17.8,9.7,24.8,17.1c7,7.5,12.4,16.4,15.9,26.1
		c3.8,10.6,5.7,21.8,5.6,33.1c0,10.9-1.7,21.7-5.1,32c-3.2,9.8-8.1,18.9-14.4,27c-6.2,7.8-13.9,14.3-22.8,18.9
		c-9,4.8-19.1,7.1-30.5,7.1c-9.8,0.1-19.5-1.5-28.7-4.8c-8.8-3.1-16.4-8.7-21.8-16.2h-0.7v89.6H346V100.6z M398.2,180.3
		c0,12,3.4,21.7,10.3,29.2s16.6,11.2,29,11.2c12.5,0,22.1-3.7,29-11.2c6.9-7.4,10.3-17.2,10.3-29.2c0-12-3.4-21.7-10.3-29.2
		c-6.9-7.5-16.6-11.2-29-11.1c-12.5,0-22.1,3.7-29,11.1S398.2,168.3,398.2,180.3L398.2,180.3z"/>
	<path class="st0" d="M9,100.6h45.3v21h0.6c2.3-3.2,4.8-6.1,7.7-8.7c3.4-3.1,7.1-5.8,11.2-8c4.4-2.5,9.1-4.5,13.9-5.9
		c5.2-1.6,10.6-2.3,16.1-2.3c11-0.1,22,1.9,32.2,6.1c9.4,3.9,17.8,9.7,24.8,17.1c7,7.5,12.4,16.4,15.9,26.1
		c3.8,10.6,5.7,21.8,5.6,33.1c0,10.9-1.7,21.7-5.1,32c-3.2,9.8-8.1,18.9-14.4,27c-6.2,7.8-13.9,14.3-22.8,18.9
		c-9,4.8-19.1,7.1-30.5,7.1c-9.8,0.1-19.5-1.5-28.7-4.8c-8.8-3.1-16.4-8.7-21.8-16.2h-0.7v89.6H9V100.6z M61.2,180.3
		c0,12,3.4,21.7,10.3,29.2s16.6,11.2,29,11.2c12.5,0,22.1-3.7,29-11.2c6.9-7.4,10.3-17.2,10.3-29.2c0-12-3.4-21.7-10.3-29.2
		c-6.9-7.5-16.6-11.2-29-11.1c-12.5,0-22.1,3.7-29,11.1S61.2,168.3,61.2,180.3L61.2,180.3z"/>
	<polygon class="st0" points="285,260.4 240,260.3 240.4,145.4 201.5,145.4 201.5,100.4 285.5,100.4 	"/>
	<rect x="204.5" y="220.8" class="st0" width="117" height="45"/>
	<path class="st0" d="M437.5,221c-12.5,0-22.4-3.8-29.3-11.3s-10.4-17.4-10.4-29.5s3.5-22,10.4-29.5s16.8-11.3,29.3-11.3
		s22.4,3.8,29.3,11.3s10.4,17.4,10.4,29.5s-3.5,22-10.4,29.5S450.1,221,437.5,221z M437.5,140.3c-12.3,0-22,3.7-28.8,11
		s-10.2,17.1-10.2,28.9s3.4,21.6,10.2,29s16.5,11,28.8,11s22-3.7,28.8-11s10.2-17.1,10.2-29s-3.5-21.6-10.2-28.9
		S449.8,140.3,437.5,140.3L437.5,140.3z"/>
	<path class="st0" d="M680.2,53.4h11v5.1h0.2c0.5-0.8,1.2-1.5,1.9-2.1c0.8-0.8,1.7-1.4,2.7-2c1.1-0.6,2.2-1.1,3.4-1.4
		c1.3-0.4,2.6-0.6,3.9-0.6c2.7,0,5.4,0.5,7.9,1.6c2.3,0.9,4.3,2.4,6,4.2c1.7,1.8,3,4,3.9,6.4c0.9,2.6,1.4,5.3,1.4,8.1
		c0,2.7-0.4,5.3-1.2,7.8c-0.8,2.4-2,4.6-3.5,6.6c-1.5,1.9-3.4,3.5-5.6,4.6c-2.3,1.2-4.9,1.8-7.4,1.7c-2.4,0-4.8-0.4-7-1.2
		c-2.1-0.8-4-2.2-5.3-4h-0.2v22.4h-12L680.2,53.4z M691.2,72.9c-0.1,2.6,0.8,5.2,2.6,7.1c4,3.6,10.1,3.6,14.2,0
		c3.4-4.2,3.4-10.1,0-14.2c-4-3.6-10.1-3.6-14.2,0C692,67.7,691.1,70.3,691.2,72.9L691.2,72.9z"/>
	<path class="st0" d="M766.3,85.6c-1.9,2.5-4.4,4.4-7.3,5.7c-2.9,1.3-6,2-9.1,2c-2.9,0-5.7-0.5-8.4-1.4c-2.5-0.9-4.9-2.3-6.9-4.1
		c-2-1.8-3.5-4-4.6-6.4c-2.2-5.4-2.2-11.4,0-16.8c1.1-2.4,2.6-4.6,4.6-6.4c2-1.8,4.3-3.2,6.9-4.1c2.7-1,5.6-1.5,8.4-1.4
		c2.6,0,5.2,0.5,7.6,1.4c2.2,0.9,4.2,2.3,5.8,4.1c1.6,1.9,2.9,4.1,3.6,6.4c0.9,2.7,1.3,5.5,1.3,8.4v3.8h-27.8
		c0.4,2.1,1.5,4.1,3.1,5.5c1.7,1.4,3.8,2.1,5.9,2c1.8,0.1,3.5-0.4,5-1.3c1.4-0.9,2.6-2.1,3.6-3.4L766.3,85.6z M756.1,68.5
		c0.1-1.9-0.6-3.8-2-5.2c-1.4-1.4-3.3-2.2-5.4-2.2c-1.2,0-2.4,0.2-3.5,0.6c-1,0.4-1.8,0.9-2.6,1.6c-0.7,0.7-1.3,1.4-1.7,2.3
		c-0.4,0.9-0.6,1.8-0.7,2.8L756.1,68.5z"/>
	<path class="st0" d="M774,72.9c0-2.9,0.5-5.8,1.7-8.4c1.1-2.4,2.6-4.6,4.6-6.4c2-1.8,4.3-3.2,6.9-4.1c5.5-1.9,11.4-1.9,16.9,0
		c2.5,0.9,4.9,2.3,6.9,4.1c2,1.8,3.5,4,4.6,6.4c2.2,5.4,2.2,11.4,0,16.8c-1.1,2.4-2.6,4.6-4.6,6.4c-2,1.8-4.3,3.2-6.9,4.1
		c-5.5,1.9-11.4,1.9-16.9,0c-2.5-0.9-4.9-2.3-6.9-4.1c-2-1.8-3.5-4-4.6-6.4C774.5,78.6,773.9,75.8,774,72.9z M786,72.9
		c-0.1,2.6,0.8,5.2,2.5,7.1c4,3.6,10.1,3.6,14.2,0c3.4-4.2,3.4-10.1,0-14.2c-4-3.6-10.1-3.6-14.2,0C786.7,67.7,785.8,70.3,786,72.9z
		"/>
	<path class="st0" d="M825.3,53.4h11v5.1h0.2c0.5-0.8,1.2-1.5,1.9-2.1c0.8-0.8,1.7-1.4,2.7-2c1.1-0.6,2.2-1.1,3.4-1.4
		c1.3-0.4,2.6-0.6,3.9-0.6c2.7,0,5.4,0.5,7.8,1.5c2.3,0.9,4.3,2.4,6,4.2c1.7,1.8,3,4,3.9,6.4c0.9,2.6,1.4,5.3,1.4,8.1
		c0,2.7-0.4,5.3-1.2,7.8c-0.8,2.4-2,4.6-3.5,6.6c-1.5,1.9-3.4,3.5-5.6,4.6c-2.3,1.2-4.9,1.8-7.4,1.7c-2.4,0-4.8-0.4-7-1.2
		c-2.1-0.8-4-2.2-5.3-4h-0.2v22.4h-12L825.3,53.4z M836.3,72.9c-0.1,2.6,0.8,5.2,2.5,7.1c4,3.6,10.1,3.6,14.2,0
		c3.4-4.2,3.4-10.1,0-14.2c-4-3.6-10.1-3.6-14.2,0C837.1,67.7,836.2,70.3,836.3,72.9L836.3,72.9z"/>
	<path class="st0" d="M874.8,31.8h12v60.5h-12V31.8z"/>
	<path class="st0" d="M932.2,85.6c-1.9,2.5-4.4,4.4-7.3,5.7c-2.9,1.3-6,2-9.1,2c-2.9,0-5.7-0.5-8.4-1.4c-2.5-0.9-4.9-2.3-6.9-4.1
		c-2-1.8-3.5-4-4.6-6.4c-2.2-5.4-2.2-11.4,0-16.8c1.1-2.5,2.6-4.7,4.6-6.5c2-1.8,4.3-3.2,6.9-4.1c2.7-1,5.6-1.5,8.4-1.4
		c2.6,0,5.2,0.5,7.6,1.4c2.2,0.9,4.2,2.3,5.8,4.1c1.6,1.9,2.9,4.1,3.6,6.4c0.9,2.7,1.3,5.5,1.3,8.4v3.8h-27.8
		c0.4,2.1,1.5,4.1,3.1,5.5c1.7,1.4,3.8,2.1,5.9,2c1.8,0.1,3.5-0.4,5-1.3c1.4-0.9,2.6-2.1,3.6-3.4L932.2,85.6z M922,68.5
		c0.1-1.9-0.6-3.8-2-5.2c-1.4-1.4-3.3-2.2-5.4-2.2c-1.2,0-2.4,0.2-3.5,0.6c-1,0.4-1.8,0.9-2.6,1.6c-0.7,0.7-1.3,1.4-1.7,2.3
		c-0.4,0.9-0.6,1.8-0.7,2.8L922,68.5z"/>
	<path class="st0" d="M678.3,137.2c0-3.9,3.2-7,7-7c3.9,0,7,3.2,7,7c0,3.9-3.2,7-7,7c-1.9,0-3.7-0.8-5-2.1
		C679,140.8,678.2,139,678.3,137.2z M679.3,149.4h12v38.9h-12V149.4z"/>
	<path class="st0" d="M699.9,149.4h11.5v5.3h0.2c0.4-0.8,1-1.6,1.6-2.2c0.7-0.8,1.6-1.5,2.5-2c1-0.6,2.1-1.1,3.3-1.4
		c1.3-0.4,2.6-0.6,4-0.6c2.5-0.1,5,0.4,7.4,1.4c1.8,0.9,3.3,2.2,4.4,3.9c1.1,1.8,1.8,3.8,2.1,5.8c0.4,2.4,0.6,4.8,0.6,7.3v21.4h-12
		v-19c0-1.1,0-2.3-0.1-3.5c-0.1-1.1-0.3-2.3-0.7-3.3c-0.8-2.3-3-3.7-5.4-3.4c-1.3-0.1-2.6,0.2-3.8,0.8c-0.9,0.5-1.7,1.3-2.2,2.2
		c-0.5,1-0.9,2.1-1,3.2c-0.2,1.2-0.2,2.4-0.2,3.7v19.4h-12L699.9,149.4z"/>
	<path class="st0" d="M767.8,160.9c-1.7-2.2-4.3-3.4-7-3.3c-1,0-2.1,0.2-3,0.7c-0.9,0.5-1.5,1.4-1.4,2.5c0,0.9,0.6,1.8,1.5,2.1
		c1.2,0.5,2.5,0.9,3.8,1.2l4.9,1.1c1.7,0.4,3.4,1,4.9,1.9c1.5,0.8,2.8,2,3.8,3.5c1.1,1.8,1.6,3.8,1.5,5.9c0.1,2.2-0.5,4.3-1.6,6.2
		c-1.1,1.6-2.5,3-4.2,3.9c-1.8,1-3.7,1.7-5.8,2.1c-2.1,0.4-4.2,0.6-6.3,0.6c-2.8,0-5.6-0.4-8.2-1.2c-2.7-0.7-5.1-2.1-7-4.1l7.3-8.1
		c1,1.3,2.3,2.4,3.7,3.2c1.5,0.7,3.1,1.1,4.8,1.1c1.3,0,2.6-0.2,3.8-0.6c1-0.3,1.7-1.2,1.7-2.2c0-1-0.6-1.9-1.5-2.3
		c-1.2-0.6-2.5-1-3.8-1.3l-4.9-1.1c-1.7-0.4-3.3-1-4.9-1.8c-3.5-1.7-5.5-5.4-5.2-9.3c-0.1-2.1,0.4-4.1,1.4-5.9
		c0.9-1.6,2.2-3,3.7-4.1c1.6-1.1,3.4-1.9,5.2-2.4c2-0.5,4-0.8,6-0.8c2.6,0,5.2,0.4,7.8,1.1c2.5,0.7,4.8,2.1,6.6,4L767.8,160.9z"/>
	<path class="st0" d="M784,149.4h11v5.1h0.2c0.5-0.8,1.2-1.5,1.9-2.1c0.8-0.8,1.7-1.4,2.7-2c1.1-0.6,2.2-1.1,3.4-1.4
		c1.3-0.4,2.6-0.6,3.9-0.6c2.7,0,5.4,0.5,7.8,1.5c2.3,0.9,4.3,2.4,6,4.2c1.7,1.8,3,4,3.9,6.4c0.9,2.6,1.4,5.3,1.4,8.1
		c0,2.7-0.4,5.3-1.2,7.8c-0.7,2.4-1.9,4.7-3.4,6.7c-1.5,1.9-3.4,3.5-5.6,4.6c-2.3,1.2-4.9,1.8-7.4,1.7c-2.4,0-4.8-0.4-7-1.2
		c-2.1-0.8-4-2.2-5.3-4H796v22.4h-12L784,149.4z M795,168.9c-0.1,2.6,0.8,5.2,2.5,7.1c4,3.6,10.1,3.6,14.2,0
		c3.4-4.2,3.4-10.1,0-14.2c-4-3.6-10.1-3.6-14.2,0C795.8,163.7,794.9,166.3,795,168.9L795,168.9z"/>
	<path class="st0" d="M832.5,137.2c0-3.9,3.2-7,7-7s7,3.2,7,7c0,3.9-3.2,7-7,7c-1.9,0-3.7-0.8-5-2.1
		C833.2,140.8,832.4,139,832.5,137.2z M833.5,149.4h12v38.9h-12V149.4z"/>
	<path class="st0" d="M854,149.4h12v6.2h0.2c1.1-2.1,2.6-4,4.6-5.4c2-1.3,4.3-1.9,6.6-1.8c0.7,0,1.4,0,2.1,0.1
		c0.6,0,1.3,0.2,1.9,0.3v11c-0.8-0.3-1.7-0.5-2.5-0.6c-0.9-0.1-1.7-0.2-2.6-0.2c-1.9-0.1-3.7,0.3-5.4,1c-1.3,0.6-2.3,1.5-3.1,2.7
		c-0.8,1.3-1.2,2.7-1.4,4.1c-0.2,1.8-0.3,3.5-0.3,5.3v16.2h-12L854,149.4z"/>
	<path class="st0" d="M885.8,137.2c0-3.9,3.2-7,7-7s7,3.2,7,7c0,3.9-3.2,7-7,7c-1.9,0-3.7-0.8-5-2.1
		C886.5,140.8,885.8,139,885.8,137.2z M886.8,149.4h12v38.9h-12V149.4z"/>
	<path class="st0" d="M907.4,149.4h11.5v5.3h0.2c0.4-0.8,1-1.6,1.6-2.2c0.7-0.8,1.6-1.5,2.5-2c1-0.6,2.1-1.1,3.3-1.5
		c1.3-0.4,2.6-0.6,4-0.6c2.5-0.1,5,0.4,7.4,1.4c1.8,0.9,3.3,2.2,4.4,3.9c1.1,1.8,1.8,3.8,2.1,5.8c0.4,2.4,0.6,4.8,0.6,7.3v21.4h-12
		v-19c0-1.1,0-2.3-0.1-3.5c-0.1-1.1-0.3-2.3-0.7-3.3c-0.8-2.3-3-3.7-5.4-3.4c-1.3-0.1-2.6,0.2-3.8,0.8c-0.9,0.5-1.7,1.3-2.2,2.2
		c-0.5,1-0.9,2.1-1,3.2c-0.2,1.2-0.2,2.4-0.2,3.7v19.4h-12L907.4,149.4z"/>
	<path class="st0" d="M994.1,185c0,7.3-1.9,12.9-5.6,16.8c-3.7,3.8-9.3,5.7-16.9,5.7c-3.4,0-6.9-0.4-10.2-1.2
		c-3.4-0.8-6.6-2.3-9.3-4.5l6.6-9.9c1.8,1.5,3.8,2.7,5.9,3.7c2.1,0.9,4.4,1.4,6.8,1.4c3.7,0,6.4-0.9,8.1-2.7
		c1.8-1.8,2.7-4.3,2.6-6.8v-3.8H982c-1.3,1.8-3.1,3.2-5.2,4c-1.8,0.7-3.8,1.1-5.8,1.2c-2.7,0-5.4-0.5-7.8-1.5c-2.3-1-4.3-2.4-6-4.2
		c-1.7-1.8-3-4-3.9-6.4c-1.8-5-1.8-10.5-0.1-15.6c0.8-2.4,2-4.6,3.5-6.5c1.5-1.9,3.4-3.4,5.6-4.5c2.3-1.2,4.9-1.8,7.4-1.7
		c2.9,0,5.9,0.7,8.5,2c1,0.5,2,1.2,2.9,2c0.7,0.6,1.4,1.3,1.9,2.1h0.2v-5.1h11L994.1,185z M963.9,168.6c0,1.2,0.2,2.5,0.7,3.6
		c0.5,1.1,1.1,2.1,2,3c0.9,0.9,1.9,1.6,3,2.1c2.4,1.1,5.2,1.1,7.6,0c1.1-0.5,2.2-1.2,3.1-2.1c0.9-0.9,1.5-1.9,2-3
		c1.5-3.5,0.7-7.6-2-10.3c-0.9-0.9-1.9-1.6-3.1-2.1c-2.4-1.1-5.2-1.1-7.6,0c-1.1,0.5-2.1,1.2-3,2.1
		C964.8,163.7,963.8,166.1,963.9,168.6L963.9,168.6z"/>
	<path class="st0" d="M680.2,237.4h11v5.1h0.2c0.5-0.8,1.2-1.5,1.9-2.1c0.8-0.8,1.7-1.4,2.7-2c1.1-0.6,2.2-1.1,3.4-1.4
		c1.3-0.4,2.6-0.6,3.9-0.6c2.7,0,5.4,0.5,7.9,1.6c2.3,0.9,4.3,2.4,6,4.2c1.7,1.8,3,4,3.9,6.4c0.9,2.6,1.4,5.3,1.4,8.1
		c0,2.7-0.4,5.3-1.2,7.8c-0.8,2.4-2,4.6-3.5,6.6c-1.5,1.9-3.4,3.5-5.6,4.6c-2.3,1.2-4.9,1.8-7.4,1.7c-2.4,0-4.8-0.4-7-1.2
		c-2.1-0.8-4-2.2-5.3-4h-0.2v22.4h-12L680.2,237.4z M691.2,256.9c-0.1,2.6,0.8,5.2,2.6,7.1c4,3.6,10.1,3.6,14.2,0
		c3.4-4.2,3.4-10.1,0-14.2c-4-3.6-10.1-3.6-14.2,0C692,251.7,691.1,254.3,691.2,256.9L691.2,256.9z"/>
	<path class="st0" d="M766.3,269.6c-1.9,2.5-4.4,4.4-7.3,5.7c-2.9,1.3-6,2-9.1,2c-2.9,0-5.7-0.5-8.4-1.4c-2.5-0.9-4.9-2.3-6.9-4.1
		c-2-1.8-3.5-4-4.6-6.4c-2.2-5.4-2.2-11.4,0-16.8c1.1-2.4,2.6-4.6,4.6-6.4c2-1.8,4.3-3.2,6.9-4.1c2.7-1,5.6-1.5,8.4-1.4
		c2.6,0,5.2,0.5,7.6,1.4c2.2,0.9,4.2,2.3,5.8,4.1c1.6,1.9,2.9,4.1,3.6,6.4c0.9,2.7,1.3,5.5,1.3,8.4v3.8h-27.8
		c0.4,2.1,1.5,4.1,3.1,5.5c1.7,1.4,3.8,2.1,5.9,2c1.8,0.1,3.5-0.4,5-1.3c1.4-0.9,2.6-2.1,3.6-3.4L766.3,269.6z M756.1,252.5
		c0.1-1.9-0.6-3.8-2-5.2c-1.4-1.4-3.3-2.2-5.4-2.2c-1.2,0-2.4,0.2-3.5,0.6c-1,0.4-1.8,0.9-2.6,1.6c-0.7,0.7-1.3,1.4-1.7,2.3
		c-0.4,0.9-0.6,1.8-0.7,2.8L756.1,252.5z"/>
	<path class="st0" d="M774,256.9c0-2.9,0.5-5.8,1.7-8.4c1.1-2.4,2.6-4.6,4.6-6.4c2-1.8,4.3-3.2,6.9-4.1c5.5-1.9,11.4-1.9,16.9,0
		c2.5,0.9,4.9,2.3,6.9,4.1c2,1.8,3.5,4,4.6,6.4c2.2,5.4,2.2,11.4,0,16.8c-1.1,2.4-2.6,4.6-4.6,6.4c-2,1.8-4.3,3.2-6.9,4.1
		c-5.5,1.9-11.4,1.9-16.9,0c-2.5-0.9-4.9-2.3-6.9-4.1c-2-1.8-3.5-4-4.6-6.4C774.5,262.6,773.9,259.8,774,256.9z M786,256.9
		c-0.1,2.6,0.8,5.2,2.5,7.1c4,3.6,10.1,3.6,14.2,0c3.4-4.2,3.4-10.1,0-14.2c-4-3.6-10.1-3.6-14.2,0
		C786.7,251.7,785.8,254.3,786,256.9z"/>
	<path class="st0" d="M825.3,237.4h11v5.1h0.2c0.5-0.8,1.2-1.5,1.9-2.1c0.8-0.8,1.7-1.4,2.7-2c1.1-0.6,2.2-1.1,3.4-1.4
		c1.3-0.4,2.6-0.6,3.9-0.6c2.7,0,5.4,0.5,7.8,1.5c2.3,0.9,4.3,2.4,6,4.2c1.7,1.8,3,4,3.9,6.4c0.9,2.6,1.4,5.3,1.4,8.1
		c0,2.7-0.4,5.3-1.2,7.8c-0.8,2.4-2,4.6-3.5,6.6c-1.5,1.9-3.4,3.5-5.6,4.6c-2.3,1.2-4.9,1.8-7.4,1.7c-2.4,0-4.8-0.4-7-1.2
		c-2.1-0.8-4-2.2-5.3-4h-0.2v22.4h-12L825.3,237.4z M836.3,256.9c-0.1,2.6,0.8,5.2,2.5,7.1c4,3.6,10.1,3.6,14.2,0
		c3.4-4.2,3.4-10.1,0-14.2c-4-3.6-10.1-3.6-14.2,0C837.1,251.7,836.2,254.3,836.3,256.9L836.3,256.9z"/>
	<path class="st0" d="M874.8,215.8h12v60.5h-12V215.8z"/>
	<path class="st0" d="M932.2,269.6c-1.9,2.5-4.4,4.4-7.3,5.7c-2.9,1.3-6,2-9.1,2c-2.9,0-5.7-0.5-8.4-1.4c-2.5-0.9-4.9-2.3-6.9-4.1
		c-2-1.8-3.5-4-4.6-6.4c-2.2-5.4-2.2-11.4,0-16.8c1.1-2.5,2.6-4.7,4.6-6.5c2-1.8,4.3-3.2,6.9-4.1c2.7-1,5.6-1.5,8.4-1.4
		c2.6,0,5.2,0.5,7.6,1.4c2.2,0.9,4.2,2.3,5.8,4.1c1.6,1.9,2.9,4.1,3.6,6.4c0.9,2.7,1.3,5.5,1.3,8.4v3.8h-27.8
		c0.4,2.1,1.5,4.1,3.1,5.5c1.7,1.4,3.8,2.1,5.9,2c1.8,0.1,3.5-0.4,5-1.3c1.4-0.9,2.6-2.1,3.6-3.4L932.2,269.6z M922,252.5
		c0.1-1.9-0.6-3.8-2-5.2c-1.4-1.4-3.3-2.2-5.4-2.2c-1.2,0-2.4,0.2-3.5,0.6c-1,0.4-1.8,0.9-2.6,1.6c-0.7,0.7-1.3,1.4-1.7,2.3
		c-0.4,0.9-0.6,1.8-0.7,2.8L922,252.5z"/>
	<rect x="586.5" y="10.4" class="st0" width="10" height="316"/>
</g>
</svg>
