<svg id="Layer_1" data-name="Layer 1" xmlns="http://www.w3.org/2000/svg" viewBox="0 0 452.33 290.93"><defs><style>.cls-1{fill:#fff;}</style></defs><title>logo-white-2</title><path class="cls-1" d="M225.27,68A22.13,22.13,0,0,0,247.4,45.9h0c0-12.22-17.1-44.26-22.13-44.26s-22.13,32-22.13,44.26h0A22.13,22.13,0,0,0,225.27,68Z"/><path class="cls-1" d="M443.79,125.24a66.65,66.65,0,0,0-13.89-22.78,62.65,62.65,0,0,0-21.64-14.9,71.7,71.7,0,0,0-28.08-5.3,48.18,48.18,0,0,0-14,2A60.6,60.6,0,0,0,354,89.42a50.75,50.75,0,0,0-9.75,7,47.67,47.67,0,0,0-6.73,7.59h-.57V85.69H297.36v202.6h43V210.06h.58A40.1,40.1,0,0,0,360,224.25a73.9,73.9,0,0,0,25.08,4.15,56.52,56.52,0,0,0,26.65-6.16,61.57,61.57,0,0,0,19.92-16.48,76.78,76.78,0,0,0,12.6-23.64,87.76,87.76,0,0,0,4.45-27.94A82.87,82.87,0,0,0,443.79,125.24Zm-32.4,30.09c0,10.38-3,18.88-8.94,25.28s-14.38,9.64-25.12,9.64-19.2-3.24-25.12-9.64-8.94-14.9-8.94-25.28,3-18.88,8.94-25.28,14.38-9.64,25.12-9.64,19.19,3.24,25.12,9.64S411.39,145,411.39,155.33Z"/><path class="cls-1" d="M135.53,102.46a62.61,62.61,0,0,0-21.63-14.9,71.71,71.71,0,0,0-28.09-5.3,48.18,48.18,0,0,0-14,2,60.84,60.84,0,0,0-12.18,5.16,51,51,0,0,0-9.74,7A47.18,47.18,0,0,0,43.12,104h-.58V85.69H3v202.6H46V210.06h.57a40.12,40.12,0,0,0,19.06,14.19,73.86,73.86,0,0,0,25.08,4.15,56.52,56.52,0,0,0,26.65-6.16,61.43,61.43,0,0,0,19.91-16.48,76.59,76.59,0,0,0,12.61-23.64,87.75,87.75,0,0,0,4.44-27.94,82.87,82.87,0,0,0-4.87-28.94A66.52,66.52,0,0,0,135.53,102.46Zm-27.2,78.37q-9,9.75-25.37,9.75T57.6,180.83q-9-9.74-9-25.5t9-25.5q9-9.75,25.36-9.75t25.37,9.75q9,9.73,9,25.5T108.33,180.83Z"/><polygon class="cls-1" points="244.56 85.5 171.11 85.5 171.11 124.8 205.11 124.8 204.87 190.75 173.73 190.75 173.73 230.06 275.93 230.06 275.93 190.75 244.18 190.75 244.56 85.5"/></svg>