<?xml version="1.0" encoding="utf-8"?>
<!-- Generator: Adobe Illustrator 22.1.0, SVG Export Plug-In . SVG Version: 6.00 Build 0)  -->
<svg version="1.1" id="Layer_1" xmlns="http://www.w3.org/2000/svg" xmlns:xlink="http://www.w3.org/1999/xlink" x="0px" y="0px"
	 viewBox="0 0 1034 362" style="enable-background:new 0 0 1034 362;" xml:space="preserve">
<style type="text/css">
	.st0{fill:#282526;}
</style>
<title>logo-full-black</title>
<g>
	<path class="st0" d="M276,90.4L276,90.4c-14,0-25.3-11.3-25.3-25.3c0,0,0,0,0,0l0,0c0-14,19.6-50.7,25.3-50.7l0,0
		c5.8,0,25.3,36.7,25.3,50.7l0,0C301.3,79,290,90.3,276,90.4C276,90.4,276,90.4,276,90.4z"/>
	<path class="st0" d="M358.5,110.6h45.3v21h0.7c2.3-3.2,4.8-6.1,7.7-8.7c3.4-3.1,7.1-5.8,11.2-8c4.4-2.5,9.1-4.5,13.9-5.9
		c5.2-1.6,10.6-2.3,16.1-2.3c11-0.1,22,1.9,32.2,6.1c9.4,3.9,17.8,9.7,24.8,17.1c7,7.5,12.4,16.4,15.9,26.1
		c3.8,10.6,5.7,21.8,5.6,33.1c0,10.9-1.7,21.7-5.1,32c-3.2,9.8-8.1,18.9-14.4,27c-6.2,7.8-13.9,14.3-22.8,18.9
		c-9,4.8-19.1,7.1-30.5,7.1c-9.8,0.1-19.5-1.5-28.7-4.8c-8.8-3.1-16.4-8.7-21.8-16.2h-0.7v89.6h-49.2V110.6z M410.7,190.3
		c0,12,3.4,21.7,10.3,29.2s16.6,11.2,29,11.2c12.5,0,22.1-3.7,29-11.2c6.9-7.4,10.3-17.2,10.3-29.2c0-12-3.4-21.7-10.3-29.2
		c-6.9-7.5-16.6-11.2-29-11.1c-12.5,0-22.1,3.7-29,11.1S410.7,178.3,410.7,190.3L410.7,190.3z"/>
	<path class="st0" d="M21.5,110.6h45.3v21h0.6c2.3-3.2,4.8-6.1,7.7-8.7c3.4-3.1,7.1-5.8,11.2-8c4.4-2.5,9.1-4.5,13.9-5.9
		c5.2-1.6,10.6-2.3,16.1-2.3c11-0.1,22,1.9,32.2,6.1c9.4,3.9,17.8,9.7,24.8,17.1c7,7.5,12.4,16.4,15.9,26.1
		c3.8,10.6,5.7,21.8,5.6,33.1c0,10.9-1.7,21.7-5.1,32c-3.2,9.8-8.1,18.9-14.4,27c-6.2,7.8-13.9,14.3-22.8,18.9
		c-9,4.8-19.1,7.1-30.5,7.1c-9.8,0.1-19.5-1.5-28.7-4.8c-8.8-3.1-16.4-8.7-21.8-16.2h-0.7v89.6H21.5V110.6z M73.7,190.3
		c0,12,3.4,21.7,10.3,29.2s16.6,11.2,29,11.2c12.5,0,22.1-3.7,29-11.2c6.9-7.4,10.3-17.2,10.3-29.2c0-12-3.4-21.7-10.3-29.2
		c-6.9-7.5-16.6-11.2-29-11.1c-12.5,0-22.1,3.7-29,11.1S73.7,178.3,73.7,190.3L73.7,190.3z"/>
	<polygon class="st0" points="297.5,270.4 252.5,270.3 252.9,155.4 214,155.4 214,110.4 298.1,110.4 	"/>
	<rect x="217" y="230.8" class="st0" width="117" height="45"/>
	<path class="st0" d="M450.1,231c-12.5,0-22.4-3.8-29.3-11.3s-10.4-17.4-10.4-29.5s3.5-22,10.4-29.5s16.8-11.3,29.3-11.3
		s22.4,3.8,29.3,11.3s10.4,17.4,10.4,29.5s-3.5,22-10.4,29.5S462.6,231,450.1,231z M450.1,150.3c-12.3,0-22,3.7-28.8,11
		s-10.2,17.1-10.2,28.9s3.4,21.6,10.2,29s16.5,11,28.8,11s22-3.7,28.8-11s10.2-17.1,10.2-29s-3.5-21.6-10.2-28.9
		S462.4,150.3,450.1,150.3L450.1,150.3z"/>
	<path class="st0" d="M692.7,63.4h11v5.1h0.2c0.5-0.8,1.2-1.5,1.9-2.1c0.8-0.8,1.7-1.4,2.7-2c1.1-0.6,2.2-1.1,3.4-1.4
		c1.3-0.4,2.6-0.6,3.9-0.6c2.7,0,5.4,0.5,7.9,1.6c2.3,0.9,4.3,2.4,6,4.2c1.7,1.8,3,4,3.9,6.4c0.9,2.6,1.4,5.3,1.4,8.1
		c0,2.7-0.4,5.3-1.2,7.8c-0.8,2.4-2,4.6-3.5,6.6c-1.5,1.9-3.4,3.5-5.6,4.6c-2.3,1.2-4.9,1.8-7.4,1.7c-2.4,0-4.8-0.4-7-1.2
		c-2.1-0.8-4-2.2-5.3-4h-0.2v22.4h-12L692.7,63.4z M703.7,82.9c-0.1,2.6,0.8,5.2,2.6,7.1c4,3.6,10.1,3.6,14.2,0
		c3.4-4.2,3.4-10.1,0-14.2c-4-3.6-10.1-3.6-14.2,0C704.6,77.7,703.7,80.3,703.7,82.9L703.7,82.9z"/>
	<path class="st0" d="M778.8,95.6c-1.9,2.5-4.4,4.4-7.3,5.7c-2.9,1.3-6,2-9.1,2c-2.9,0-5.7-0.5-8.4-1.4c-2.5-0.9-4.9-2.3-6.9-4.1
		c-2-1.8-3.5-4-4.6-6.4c-2.2-5.4-2.2-11.4,0-16.8c1.1-2.4,2.6-4.6,4.6-6.4c2-1.8,4.3-3.2,6.9-4.1c2.7-1,5.6-1.5,8.4-1.4
		c2.6,0,5.2,0.5,7.6,1.4c2.2,0.9,4.2,2.3,5.8,4.1c1.6,1.9,2.9,4.1,3.6,6.4c0.9,2.7,1.3,5.5,1.3,8.4v3.8h-27.8
		c0.4,2.1,1.5,4.1,3.1,5.5c1.7,1.4,3.8,2.1,5.9,2c1.8,0.1,3.5-0.4,5-1.3c1.4-0.9,2.6-2.1,3.6-3.4L778.8,95.6z M768.7,78.5
		c0.1-1.9-0.6-3.8-2-5.2c-1.4-1.4-3.3-2.2-5.4-2.2c-1.2,0-2.4,0.2-3.5,0.6c-1,0.4-1.8,0.9-2.6,1.6c-0.7,0.7-1.3,1.4-1.7,2.3
		c-0.4,0.9-0.6,1.8-0.7,2.8L768.7,78.5z"/>
	<path class="st0" d="M786.5,82.9c0-2.9,0.5-5.8,1.7-8.4c1.1-2.4,2.6-4.6,4.6-6.4c2-1.8,4.3-3.2,6.9-4.1c5.5-1.9,11.4-1.9,16.9,0
		c2.5,0.9,4.9,2.3,6.9,4.1c2,1.8,3.5,4,4.6,6.4c2.2,5.4,2.2,11.4,0,16.8c-1.1,2.4-2.6,4.6-4.6,6.4c-2,1.8-4.3,3.2-6.9,4.1
		c-5.5,1.9-11.4,1.9-16.9,0c-2.5-0.9-4.9-2.3-6.9-4.1c-2-1.8-3.5-4-4.6-6.4C787,88.6,786.5,85.8,786.5,82.9z M798.5,82.9
		c-0.1,2.6,0.8,5.2,2.5,7.1c4,3.6,10.1,3.6,14.2,0c3.4-4.2,3.4-10.1,0-14.2c-4-3.6-10.1-3.6-14.2,0
		C799.3,77.7,798.4,80.3,798.5,82.9z"/>
	<path class="st0" d="M837.9,63.4h11v5.1h0.2c0.5-0.8,1.2-1.5,1.9-2.1c0.8-0.8,1.7-1.4,2.7-2c1.1-0.6,2.2-1.1,3.4-1.4
		c1.3-0.4,2.6-0.6,3.9-0.6c2.7,0,5.4,0.5,7.8,1.5c2.3,0.9,4.3,2.4,6,4.2c1.7,1.8,3,4,3.9,6.4c0.9,2.6,1.4,5.3,1.4,8.1
		c0,2.7-0.4,5.3-1.2,7.8c-0.8,2.4-2,4.6-3.5,6.6c-1.5,1.9-3.4,3.5-5.6,4.6c-2.3,1.2-4.9,1.8-7.4,1.7c-2.4,0-4.8-0.4-7-1.2
		c-2.1-0.8-4-2.2-5.3-4h-0.2v22.4h-12L837.9,63.4z M848.9,82.9c-0.1,2.6,0.8,5.2,2.5,7.1c4,3.6,10.1,3.6,14.2,0
		c3.4-4.2,3.4-10.1,0-14.2c-4-3.6-10.1-3.6-14.2,0C849.7,77.7,848.8,80.3,848.9,82.9L848.9,82.9z"/>
	<path class="st0" d="M887.3,41.8h12v60.5h-12V41.8z"/>
	<path class="st0" d="M944.7,95.6c-1.9,2.5-4.4,4.4-7.3,5.7c-2.9,1.3-6,2-9.1,2c-2.9,0-5.7-0.5-8.4-1.4c-2.5-0.9-4.9-2.3-6.9-4.1
		c-2-1.8-3.5-4-4.6-6.4c-2.2-5.4-2.2-11.4,0-16.8c1.1-2.5,2.6-4.7,4.6-6.5c2-1.8,4.3-3.2,6.9-4.1c2.7-1,5.6-1.5,8.4-1.4
		c2.6,0,5.2,0.5,7.6,1.4c2.2,0.9,4.2,2.3,5.8,4.1c1.6,1.9,2.9,4.1,3.6,6.4c0.9,2.7,1.3,5.5,1.3,8.4v3.8h-27.8
		c0.4,2.1,1.5,4.1,3.1,5.5c1.7,1.4,3.8,2.1,5.9,2c1.8,0.1,3.5-0.4,5-1.3c1.4-0.9,2.6-2.1,3.6-3.4L944.7,95.6z M934.6,78.5
		c0.1-1.9-0.6-3.8-2-5.2c-1.4-1.4-3.3-2.2-5.4-2.2c-1.2,0-2.4,0.2-3.5,0.6c-1,0.4-1.8,0.9-2.6,1.6c-0.7,0.7-1.3,1.4-1.7,2.3
		c-0.4,0.9-0.6,1.8-0.7,2.8L934.6,78.5z"/>
	<path class="st0" d="M690.8,147.2c0-3.9,3.2-7,7-7c3.9,0,7,3.2,7,7c0,3.9-3.2,7-7,7c-1.9,0-3.7-0.8-5-2.1
		C691.5,150.8,690.8,149,690.8,147.2z M691.8,159.4h12v38.9h-12V159.4z"/>
	<path class="st0" d="M712.4,159.4h11.5v5.3h0.2c0.4-0.8,1-1.6,1.6-2.2c0.7-0.8,1.6-1.5,2.5-2c1-0.6,2.1-1.1,3.3-1.4
		c1.3-0.4,2.6-0.6,4-0.6c2.5-0.1,5,0.4,7.4,1.4c1.8,0.9,3.3,2.2,4.4,3.9c1.1,1.8,1.8,3.8,2.1,5.8c0.4,2.4,0.6,4.8,0.6,7.3v21.4h-12
		v-19c0-1.1,0-2.3-0.1-3.5c-0.1-1.1-0.3-2.3-0.7-3.3c-0.8-2.3-3-3.7-5.4-3.4c-1.3-0.1-2.6,0.2-3.8,0.8c-0.9,0.5-1.7,1.3-2.2,2.2
		c-0.5,1-0.9,2.1-1,3.2c-0.2,1.2-0.2,2.4-0.2,3.7v19.4h-12L712.4,159.4z"/>
	<path class="st0" d="M780.3,170.9c-1.7-2.2-4.3-3.4-7-3.3c-1,0-2.1,0.2-3,0.7c-0.9,0.5-1.5,1.4-1.4,2.5c0,0.9,0.6,1.8,1.5,2.1
		c1.2,0.5,2.5,0.9,3.8,1.2l4.9,1.1c1.7,0.4,3.4,1,4.9,1.9c1.5,0.8,2.8,2,3.8,3.5c1.1,1.8,1.6,3.8,1.5,5.9c0.1,2.2-0.5,4.3-1.6,6.2
		c-1.1,1.6-2.5,3-4.2,3.9c-1.8,1-3.7,1.7-5.8,2.1c-2.1,0.4-4.2,0.6-6.3,0.6c-2.8,0-5.6-0.4-8.2-1.2c-2.7-0.7-5.1-2.1-7-4.1l7.3-8.1
		c1,1.3,2.3,2.4,3.7,3.2c1.5,0.7,3.1,1.1,4.8,1.1c1.3,0,2.6-0.2,3.8-0.6c1-0.3,1.7-1.2,1.7-2.2c0-1-0.6-1.9-1.5-2.3
		c-1.2-0.6-2.5-1-3.8-1.3l-4.9-1.1c-1.7-0.4-3.3-1-4.9-1.8c-3.5-1.7-5.5-5.4-5.2-9.3c-0.1-2.1,0.4-4.1,1.4-5.9
		c0.9-1.6,2.2-3,3.7-4.1c1.6-1.1,3.4-1.9,5.2-2.4c2-0.5,4-0.8,6-0.8c2.6,0,5.2,0.4,7.8,1.1c2.5,0.7,4.8,2.1,6.6,4L780.3,170.9z"/>
	<path class="st0" d="M796.5,159.4h11v5.1h0.2c0.5-0.8,1.2-1.5,1.9-2.1c0.8-0.8,1.7-1.4,2.7-2c1.1-0.6,2.2-1.1,3.4-1.4
		c1.3-0.4,2.6-0.6,3.9-0.6c2.7,0,5.4,0.5,7.8,1.5c2.3,0.9,4.3,2.4,6,4.2c1.7,1.8,3,4,3.9,6.4c0.9,2.6,1.4,5.3,1.4,8.1
		c0,2.7-0.4,5.3-1.2,7.8c-0.7,2.4-1.9,4.7-3.4,6.7c-1.5,1.9-3.4,3.5-5.6,4.6c-2.3,1.2-4.9,1.8-7.4,1.7c-2.4,0-4.8-0.4-7-1.2
		c-2.1-0.8-4-2.2-5.3-4h-0.2v22.4h-12L796.5,159.4z M807.5,178.9c-0.1,2.6,0.8,5.2,2.5,7.1c4,3.6,10.1,3.6,14.2,0
		c3.4-4.2,3.4-10.1,0-14.2c-4-3.6-10.1-3.6-14.2,0C808.3,173.7,807.4,176.3,807.5,178.9L807.5,178.9z"/>
	<path class="st0" d="M845,147.2c0-3.9,3.2-7,7-7s7,3.2,7,7c0,3.9-3.2,7-7,7c-1.9,0-3.7-0.8-5-2.1C845.7,150.8,845,149,845,147.2z
		 M846,159.4h12v38.9h-12V159.4z"/>
	<path class="st0" d="M866.6,159.4h12v6.2h0.2c1.1-2.1,2.6-4,4.6-5.4c2-1.3,4.3-1.9,6.6-1.8c0.7,0,1.4,0,2.1,0.1
		c0.6,0,1.3,0.2,1.9,0.3v11c-0.8-0.3-1.7-0.5-2.5-0.6c-0.9-0.1-1.7-0.2-2.6-0.2c-1.9-0.1-3.7,0.3-5.4,1c-1.3,0.6-2.3,1.5-3.1,2.7
		c-0.8,1.3-1.2,2.7-1.4,4.1c-0.2,1.8-0.3,3.5-0.3,5.3v16.2h-12L866.6,159.4z"/>
	<path class="st0" d="M898.3,147.2c0-3.9,3.2-7,7-7s7,3.2,7,7c0,3.9-3.2,7-7,7c-1.9,0-3.7-0.8-5-2.1
		C899,150.8,898.3,149,898.3,147.2z M899.3,159.4h12v38.9h-12V159.4z"/>
	<path class="st0" d="M919.9,159.4h11.5v5.3h0.2c0.4-0.8,1-1.6,1.6-2.2c0.7-0.8,1.6-1.5,2.5-2c1-0.6,2.1-1.1,3.3-1.5
		c1.3-0.4,2.6-0.6,4-0.6c2.5-0.1,5,0.4,7.4,1.4c1.8,0.9,3.3,2.2,4.4,3.9c1.1,1.8,1.8,3.8,2.1,5.8c0.4,2.4,0.6,4.8,0.6,7.3v21.4h-12
		v-19c0-1.1,0-2.3-0.1-3.5c-0.1-1.1-0.3-2.3-0.7-3.3c-0.8-2.3-3-3.7-5.4-3.4c-1.3-0.1-2.6,0.2-3.8,0.8c-0.9,0.5-1.7,1.3-2.2,2.2
		c-0.5,1-0.9,2.1-1,3.2c-0.2,1.2-0.2,2.4-0.2,3.7v19.4h-12L919.9,159.4z"/>
	<path class="st0" d="M1006.7,195c0,7.3-1.9,12.9-5.6,16.8c-3.7,3.8-9.3,5.7-16.9,5.7c-3.4,0-6.9-0.4-10.2-1.2
		c-3.4-0.8-6.6-2.3-9.3-4.5l6.6-9.9c1.8,1.5,3.8,2.7,5.9,3.7c2.1,0.9,4.4,1.4,6.8,1.4c3.7,0,6.4-0.9,8.1-2.7
		c1.8-1.8,2.7-4.3,2.6-6.8v-3.8h-0.2c-1.3,1.8-3.1,3.2-5.2,4c-1.8,0.7-3.8,1.1-5.8,1.2c-2.7,0-5.4-0.5-7.8-1.5c-2.3-1-4.3-2.4-6-4.2
		c-1.7-1.8-3-4-3.9-6.4c-1.8-5-1.8-10.5-0.1-15.6c0.8-2.4,2-4.6,3.5-6.5c1.5-1.9,3.4-3.4,5.6-4.5c2.3-1.2,4.9-1.8,7.4-1.7
		c2.9,0,5.9,0.7,8.5,2c1,0.5,2,1.2,2.9,2c0.7,0.6,1.4,1.3,1.9,2.1h0.2v-5.1h11L1006.7,195z M976.4,178.6c0,1.2,0.2,2.5,0.7,3.6
		c0.5,1.1,1.1,2.1,2,3c0.9,0.9,1.9,1.6,3,2.1c2.4,1.1,5.2,1.1,7.6,0c1.1-0.5,2.2-1.2,3.1-2.1c0.9-0.9,1.5-1.9,2-3
		c1.5-3.5,0.7-7.6-2-10.3c-0.9-0.9-1.9-1.6-3.1-2.1c-2.4-1.1-5.2-1.1-7.6,0c-1.1,0.5-2.1,1.2-3,2.1
		C977.4,173.7,976.4,176.1,976.4,178.6L976.4,178.6z"/>
	<path class="st0" d="M692.7,247.4h11v5.1h0.2c0.5-0.8,1.2-1.5,1.9-2.1c0.8-0.8,1.7-1.4,2.7-2c1.1-0.6,2.2-1.1,3.4-1.4
		c1.3-0.4,2.6-0.6,3.9-0.6c2.7,0,5.4,0.5,7.9,1.6c2.3,0.9,4.3,2.4,6,4.2c1.7,1.8,3,4,3.9,6.4c0.9,2.6,1.4,5.3,1.4,8.1
		c0,2.7-0.4,5.3-1.2,7.8c-0.8,2.4-2,4.6-3.5,6.6c-1.5,1.9-3.4,3.5-5.6,4.6c-2.3,1.2-4.9,1.8-7.4,1.7c-2.4,0-4.8-0.4-7-1.2
		c-2.1-0.8-4-2.2-5.3-4h-0.2v22.4h-12L692.7,247.4z M703.7,266.9c-0.1,2.6,0.8,5.2,2.6,7.1c4,3.6,10.1,3.6,14.2,0
		c3.4-4.2,3.4-10.1,0-14.2c-4-3.6-10.1-3.6-14.2,0C704.6,261.7,703.7,264.3,703.7,266.9L703.7,266.9z"/>
	<path class="st0" d="M778.8,279.6c-1.9,2.5-4.4,4.4-7.3,5.7c-2.9,1.3-6,2-9.1,2c-2.9,0-5.7-0.5-8.4-1.4c-2.5-0.9-4.9-2.3-6.9-4.1
		c-2-1.8-3.5-4-4.6-6.4c-2.2-5.4-2.2-11.4,0-16.8c1.1-2.4,2.6-4.6,4.6-6.4c2-1.8,4.3-3.2,6.9-4.1c2.7-1,5.6-1.5,8.4-1.4
		c2.6,0,5.2,0.5,7.6,1.4c2.2,0.9,4.2,2.3,5.8,4.1c1.6,1.9,2.9,4.1,3.6,6.4c0.9,2.7,1.3,5.5,1.3,8.4v3.8h-27.8
		c0.4,2.1,1.5,4.1,3.1,5.5c1.7,1.4,3.8,2.1,5.9,2c1.8,0.1,3.5-0.4,5-1.3c1.4-0.9,2.6-2.1,3.6-3.4L778.8,279.6z M768.7,262.5
		c0.1-1.9-0.6-3.8-2-5.2c-1.4-1.4-3.3-2.2-5.4-2.2c-1.2,0-2.4,0.2-3.5,0.6c-1,0.4-1.8,0.9-2.6,1.6c-0.7,0.7-1.3,1.4-1.7,2.3
		c-0.4,0.9-0.6,1.8-0.7,2.8L768.7,262.5z"/>
	<path class="st0" d="M786.5,266.9c0-2.9,0.5-5.8,1.7-8.4c1.1-2.4,2.6-4.6,4.6-6.4c2-1.8,4.3-3.2,6.9-4.1c5.5-1.9,11.4-1.9,16.9,0
		c2.5,0.9,4.9,2.3,6.9,4.1c2,1.8,3.5,4,4.6,6.4c2.2,5.4,2.2,11.4,0,16.8c-1.1,2.4-2.6,4.6-4.6,6.4c-2,1.8-4.3,3.2-6.9,4.1
		c-5.5,1.9-11.4,1.9-16.9,0c-2.5-0.9-4.9-2.3-6.9-4.1c-2-1.8-3.5-4-4.6-6.4C787,272.6,786.5,269.8,786.5,266.9z M798.5,266.9
		c-0.1,2.6,0.8,5.2,2.5,7.1c4,3.6,10.1,3.6,14.2,0c3.4-4.2,3.4-10.1,0-14.2c-4-3.6-10.1-3.6-14.2,0
		C799.3,261.7,798.4,264.3,798.5,266.9z"/>
	<path class="st0" d="M837.9,247.4h11v5.1h0.2c0.5-0.8,1.2-1.5,1.9-2.1c0.8-0.8,1.7-1.4,2.7-2c1.1-0.6,2.2-1.1,3.4-1.4
		c1.3-0.4,2.6-0.6,3.9-0.6c2.7,0,5.4,0.5,7.8,1.5c2.3,0.9,4.3,2.4,6,4.2c1.7,1.8,3,4,3.9,6.4c0.9,2.6,1.4,5.3,1.4,8.1
		c0,2.7-0.4,5.3-1.2,7.8c-0.8,2.4-2,4.6-3.5,6.6c-1.5,1.9-3.4,3.5-5.6,4.6c-2.3,1.2-4.9,1.8-7.4,1.7c-2.4,0-4.8-0.4-7-1.2
		c-2.1-0.8-4-2.2-5.3-4h-0.2v22.4h-12L837.9,247.4z M848.9,266.9c-0.1,2.6,0.8,5.2,2.5,7.1c4,3.6,10.1,3.6,14.2,0
		c3.4-4.2,3.4-10.1,0-14.2c-4-3.6-10.1-3.6-14.2,0C849.7,261.7,848.8,264.3,848.9,266.9L848.9,266.9z"/>
	<path class="st0" d="M887.3,225.8h12v60.5h-12V225.8z"/>
	<path class="st0" d="M944.7,279.6c-1.9,2.5-4.4,4.4-7.3,5.7c-2.9,1.3-6,2-9.1,2c-2.9,0-5.7-0.5-8.4-1.4c-2.5-0.9-4.9-2.3-6.9-4.1
		c-2-1.8-3.5-4-4.6-6.4c-2.2-5.4-2.2-11.4,0-16.8c1.1-2.5,2.6-4.7,4.6-6.5c2-1.8,4.3-3.2,6.9-4.1c2.7-1,5.6-1.5,8.4-1.4
		c2.6,0,5.2,0.5,7.6,1.4c2.2,0.9,4.2,2.3,5.8,4.1c1.6,1.9,2.9,4.1,3.6,6.4c0.9,2.7,1.3,5.5,1.3,8.4v3.8h-27.8
		c0.4,2.1,1.5,4.1,3.1,5.5c1.7,1.4,3.8,2.1,5.9,2c1.8,0.1,3.5-0.4,5-1.3c1.4-0.9,2.6-2.1,3.6-3.4L944.7,279.6z M934.6,262.5
		c0.1-1.9-0.6-3.8-2-5.2c-1.4-1.4-3.3-2.2-5.4-2.2c-1.2,0-2.4,0.2-3.5,0.6c-1,0.4-1.8,0.9-2.6,1.6c-0.7,0.7-1.3,1.4-1.7,2.3
		c-0.4,0.9-0.6,1.8-0.7,2.8L934.6,262.5z"/>
	<rect x="599" y="20.4" class="st0" width="10" height="316"/>
</g>
</svg>
