<?xml version="1.0" encoding="utf-8"?>
<!-- Generator: Adobe Illustrator 22.1.0, SVG Export Plug-In . SVG Version: 6.00 Build 0)  -->
<svg version="1.1" id="Layer_1" xmlns="http://www.w3.org/2000/svg" xmlns:xlink="http://www.w3.org/1999/xlink" x="0px" y="0px"
	 viewBox="0 0 50 50" style="enable-background:new 0 0 50 50;" xml:space="preserve">
<style type="text/css">
	.st0{fill:#D1D1D1;}
</style>
<title>2Artboard 1</title>
<path class="st0" d="M19.1,36.3c-0.3-1.2-1.3-2-2.5-2h-1.7c-1.2,0-2.3,0.8-2.5,2l-0.3,1c-0.6,2.4-0.3,4.9,1,7.1l1.9,3.3
	c0.2,0.4,0.8,0.6,1.2,0.3c0.1-0.1,0.2-0.2,0.3-0.3l1.9-3.3c1.3-2.1,1.6-4.7,1-7.1L19.1,36.3z M17,43.6l-1.3,2.2l-1.3-2.2
	c-1-1.8-1.3-3.9-0.8-5.8l0.3-1c0.1-0.4,0.5-0.7,1-0.8h1.7c0.5,0,0.9,0.3,1,0.8l0.3,1C18.3,39.7,18,41.8,17,43.6z"/>
<path class="st0" d="M12.4,14.8c0,1.6,1.3,2.9,2.9,2.9c1.6,0,2.9-1.3,2.9-2.9c0-1.6-1.3-2.9-2.9-2.9c0,0,0,0,0,0
	C13.7,11.9,12.4,13.2,12.4,14.8z"/>
<path class="st0" d="M29.3,28.6c-0.7-3.6-2.7-6.8-5.6-9.1c-0.6-5.7-2.6-11.1-5.8-15.8L16.7,2c-0.3-0.4-0.8-0.7-1.3-0.7l0,0
	c-0.5,0-1,0.3-1.3,0.7l-1,1.5C9.9,8.2,7.9,13.8,7.2,19.5c-2.9,2.2-5,5.4-5.7,9.1l-0.4,2.1c-0.1,0.6,0.1,1.2,0.6,1.6
	c0.3,0.2,0.6,0.3,0.9,0.3c0.3,0,0.5-0.1,0.8-0.2l4.2-1.8c0.1,0.4,0.2,0.9,0.3,1.3L8,32c0.2,0.8,0.9,1.3,1.7,1.3h0.1l3.4-0.2
	c1.5-0.1,3.1-0.1,4.6,0l3.3,0.2c0.9,0,1.7-0.5,1.9-1.4c0.1-0.4,0.2-0.9,0.3-1.3l4.2,1.8c0.2,0.1,0.5,0.2,0.7,0.2
	c0.3,0,0.7-0.1,0.9-0.3c0.5-0.4,0.7-1,0.6-1.6L29.3,28.6z M2.8,30.9l0.4-2.1c0.5-2.7,1.9-5.2,3.8-7.1c-0.1,2.4,0,4.8,0.3,7.2
	L2.8,30.9z M21.4,31.5c0,0.1-0.1,0.2-0.2,0.2l-3.3-0.2c-1.6-0.1-3.2-0.1-4.8,0l-3.4,0.2c-0.1,0-0.2-0.1-0.2-0.2v-0.1
	c-2.1-9.4-0.3-19.2,5-27.1l0.9-1.4l1.1,1.7C21.9,12.5,23.6,22.2,21.4,31.5z M23.6,29c0.4-2.4,0.5-4.7,0.4-7.1c2,1.9,3.3,4.4,3.8,7.1
	l0.4,2.1L23.6,29z"/>
</svg>
