<svg id="Layer_1" data-name="Layer 1" xmlns="http://www.w3.org/2000/svg" viewBox="0 0 50 50"><defs><style>.cls-1{fill:#d1d1d1;}</style></defs><title>2Artboard 1</title><path class="cls-1" d="M28.4,35.73a2.44,2.44,0,0,0-2.33-1.84H24.48a2.4,2.4,0,0,0-2.34,1.84l-.24.89a8.74,8.74,0,0,0,.89,6.51l1.79,3a.8.8,0,0,0,1.39,0l1.79-3a8.52,8.52,0,0,0,.89-6.51Zm-1.93,6.65-1.2,2-1.19-2A7,7,0,0,1,23.34,37l.24-.89a1,1,0,0,1,.9-.7h1.59a.91.91,0,0,1,.89.7l.25.89A7.24,7.24,0,0,1,26.47,42.38Z"/><path class="cls-1" d="M22.23,15.86a2.7,2.7,0,1,0,2.7-2.69A2.71,2.71,0,0,0,22.23,15.86Z"/><path class="cls-1" d="M37.74,28.58a13.84,13.84,0,0,0-5.12-8.35A32.25,32.25,0,0,0,27.31,5.68L26.22,4.09A1.47,1.47,0,0,0,25,3.44h0a1.4,1.4,0,0,0-1.19.65l-.89,1.34a33,33,0,0,0-5.47,14.8,13.65,13.65,0,0,0-5.21,8.35l-.35,1.93A1.46,1.46,0,0,0,12.46,32a1.33,1.33,0,0,0,.84.3A1.54,1.54,0,0,0,14,32.1l3.87-1.64c.1.4.15.8.25,1.2l.05.1A1.67,1.67,0,0,0,19.76,33h.1l3.13-.2a29.72,29.72,0,0,1,4.22,0l3,.2a1.71,1.71,0,0,0,1.74-1.29,10.24,10.24,0,0,0,.25-1.2l3.87,1.64a1.54,1.54,0,0,0,.65.15,1.33,1.33,0,0,0,.84-.3,1.46,1.46,0,0,0,.55-1.44ZM13.4,30.71l.35-1.89a12.2,12.2,0,0,1,3.53-6.5,37.41,37.41,0,0,0,.29,6.6Zm17.09.55c0,.1-.1.15-.2.15l-3-.2a32.6,32.6,0,0,0-4.42,0l-3.13.2c-.1,0-.2-.05-.2-.15v-.05a32.11,32.11,0,0,1,4.62-25L25,4.88l1.05,1.59A31.26,31.26,0,0,1,30.49,31.26Zm2-2.34a32.72,32.72,0,0,0,.34-6.55,12.13,12.13,0,0,1,3.48,6.5l.35,1.89Z"/></svg>